<svg width="16" height="16" viewBox="0 0 16 16" fill="none" xmlns="http://www.w3.org/2000/svg">
<g clip-path="url(#clip0_192_340)">
<path d="M12.1601 0C13.6739 0.0809614 14.9504 0.839975 15.6265 2.41366C16.3077 3.99241 16.0353 5.48514 14.8646 6.75016C13.8555 7.83808 12.7908 8.88045 11.7212 9.90765C10.2024 11.3751 7.76026 11.3599 6.25159 9.90765C5.79747 9.46742 5.74701 8.89563 6.12544 8.46553C6.50892 8.03036 7.10936 8.01518 7.59375 8.43517C8.51207 9.2296 9.61204 9.19924 10.4648 8.34914C11.4285 7.38773 12.3922 6.42631 13.3459 5.45984C13.906 4.88804 14.1128 4.20493 13.8757 3.42568C13.6436 2.67679 13.1289 2.21126 12.367 2.0544C11.6657 1.90765 11.0551 2.12018 10.5455 2.62113C10.0712 3.08665 9.607 3.5623 9.1327 4.03289C8.67354 4.4883 8.08319 4.5136 7.66944 4.09867C7.25569 3.6888 7.27082 3.08159 7.71989 2.62619C8.21437 2.12018 8.70886 1.61923 9.21847 1.1284C9.98543 0.389627 10.9088 0.0253004 12.1551 0.00506009L12.1601 0Z" fill="black"/>
<path d="M3.81957 16C2.3109 15.914 1.03433 15.1499 0.363249 13.5762C-0.312879 11.9924 -0.0353638 10.5047 1.13524 9.24478C2.13934 8.16698 3.19895 7.13472 4.25855 6.10753C5.78236 4.62998 8.23963 4.6401 9.7483 6.10753C10.1974 6.54775 10.2428 7.1246 9.85426 7.55471C9.47079 7.97976 8.87539 7.99494 8.41118 7.59013C7.46763 6.7704 6.37776 6.81088 5.49475 7.69133C4.54111 8.64769 3.58242 9.59899 2.63383 10.5604C2.0788 11.1221 1.87697 11.8001 2.10907 12.5642C2.33613 13.3232 2.86088 13.7989 3.63793 13.9557C4.33928 14.0974 4.94982 13.8798 5.45439 13.3789C5.9186 12.9184 6.37776 12.4529 6.84196 11.9924C7.31626 11.5218 7.91166 11.4965 8.33045 11.9216C8.7442 12.3466 8.71393 12.9437 8.24468 13.4194C7.76029 13.9051 7.28094 14.396 6.79151 14.8716C6.01951 15.6205 5.08605 15.9899 3.82462 16.0051L3.81957 16Z" fill="black"/>
</g>
<defs>
<clipPath id="clip0_192_340">
<rect width="16" height="16" fill="white"/>
</clipPath>
</defs>
</svg>
