<svg width="98" height="33" viewBox="0 0 98 33" fill="none" xmlns="http://www.w3.org/2000/svg">
<g opacity="0.5">
<path d="M18.086 30.836C16.422 29.2067 15.122 27.1353 14.186 24.622C13.2673 22.1087 12.808 19.396 12.808 16.484C12.808 13.5027 13.2933 10.7207 14.264 8.138C15.252 5.538 16.656 3.39733 18.476 1.716H20.946V1.95C19.0047 3.77 17.54 5.96267 16.552 8.528C15.5813 11.076 15.096 13.728 15.096 16.484C15.096 19.1707 15.5553 21.736 16.474 24.18C17.41 26.624 18.7707 28.7647 20.556 30.602V30.836H18.086ZM35.7686 21.034C35.7686 21.866 35.5606 22.6633 35.1446 23.426C34.7286 24.1713 34.1133 24.7953 33.2986 25.298C32.5013 25.8007 31.5393 26.0867 30.4126 26.156V28.262H29.0086V26.156C27.4313 26.0173 26.1486 25.5147 25.1606 24.648C24.1726 23.764 23.67 22.646 23.6526 21.294H26.1746C26.244 22.022 26.5126 22.6547 26.9806 23.192C27.466 23.7293 28.142 24.0673 29.0086 24.206V17.706C27.8473 17.4113 26.9113 17.108 26.2006 16.796C25.49 16.484 24.8833 15.9987 24.3806 15.34C23.878 14.6813 23.6266 13.7973 23.6266 12.688C23.6266 11.284 24.112 10.1227 25.0826 9.204C26.0706 8.28533 27.3793 7.774 29.0086 7.67V5.512H30.4126V7.67C31.886 7.79133 33.0733 8.268 33.9746 9.1C34.876 9.91467 35.396 10.9807 35.5346 12.298H33.0126C32.926 11.6913 32.6573 11.1453 32.2066 10.66C31.756 10.1573 31.158 9.828 30.4126 9.672V16.016C31.5566 16.3107 32.484 16.614 33.1946 16.926C33.9226 17.2207 34.5293 17.6973 35.0146 18.356C35.5173 19.0147 35.7686 19.9073 35.7686 21.034ZM26.0446 12.558C26.0446 13.4073 26.296 14.0573 26.7986 14.508C27.3013 14.9587 28.038 15.3313 29.0086 15.626V9.62C28.1073 9.70667 27.388 10.0013 26.8506 10.504C26.3133 10.9893 26.0446 11.674 26.0446 12.558ZM30.4126 24.232C31.3486 24.128 32.0766 23.79 32.5966 23.218C33.134 22.646 33.4026 21.9613 33.4026 21.164C33.4026 20.3147 33.1426 19.6647 32.6226 19.214C32.1026 18.746 31.366 18.3733 30.4126 18.096V24.232ZM51.6825 9.048L44.4545 26H42.0625L49.3945 9.282H39.3585V7.254H51.6825V9.048ZM54.2798 24.102C56.4812 22.334 58.2058 20.8867 59.4538 19.76C60.7018 18.616 61.7505 17.4287 62.5998 16.198C63.4665 14.95 63.8998 13.728 63.8998 12.532C63.8998 11.4053 63.6225 10.5213 63.0678 9.88C62.5305 9.22133 61.6552 8.892 60.4418 8.892C59.2632 8.892 58.3445 9.26467 57.6858 10.01C57.0445 10.738 56.6978 11.7173 56.6458 12.948H54.3578C54.4272 11.0067 55.0165 9.50733 56.1258 8.45C57.2352 7.39267 58.6652 6.864 60.4158 6.864C62.2012 6.864 63.6138 7.358 64.6538 8.346C65.7112 9.334 66.2398 10.6947 66.2398 12.428C66.2398 13.8667 65.8065 15.2707 64.9398 16.64C64.0905 17.992 63.1198 19.188 62.0278 20.228C60.9358 21.2507 59.5405 22.4467 57.8418 23.816H66.7858V25.792H54.2798V24.102ZM69.4169 30.836V30.602C71.2022 28.7647 72.5542 26.624 73.4729 24.18C74.4089 21.736 74.8769 19.1707 74.8769 16.484C74.8769 13.728 74.3829 11.076 73.3949 8.528C72.4242 5.96267 70.9682 3.77 69.0269 1.95V1.716H71.4969C73.3169 3.39733 74.7122 5.538 75.6829 8.138C76.6709 10.7207 77.1649 13.5027 77.1649 16.484C77.1649 19.396 76.6969 22.1087 75.7609 24.622C74.8422 27.1353 73.5509 29.2067 71.8869 30.836H69.4169Z" fill="#4F4F4F"/>
<line x1="0.897451" y1="22.0053" x2="97.8974" y2="12.0053" stroke="#4F4F4F" stroke-width="2"/>
</g>
</svg>
