<svg width="64" height="64" viewBox="0 0 64 64" fill="none" xmlns="http://www.w3.org/2000/svg">
<circle cx="32" cy="32" r="32" fill="#0F3D5F"/>
<g clip-path="url(#clip0_192_514)">
<path d="M43.9919 37.5503C42.3373 36.0347 40.727 34.5591 39.122 33.087C40.642 30.3079 40.8243 27.5618 39.2954 24.8157C37.3807 21.3761 33.3566 19.7893 29.5431 20.9294C25.8376 22.0366 23.3708 25.6361 23.6928 29.4632C23.9653 32.6908 26.3437 35.6298 29.5042 36.5336C30.2067 36.7352 30.4102 37.0324 30.3908 37.7311C30.3377 39.5803 30.3731 41.4313 30.3731 43.2737C25.9172 43.8055 19.5077 38.7374 17.7381 33.3477C15.5067 26.552 18.4725 19.2192 24.8395 15.7953C31.1198 12.4165 38.9733 13.9182 43.5672 19.353C48.1735 24.8018 47.9753 32.5274 43.9919 37.552V37.5503Z" fill="white"/>
<path d="M33.7192 32.6127C36.5223 35.1798 39.2085 37.6408 41.9956 40.194C41.1073 40.6042 40.3039 40.9744 39.4598 41.3637C40.6047 43.7605 41.7284 46.112 42.9088 48.5853C41.9142 49.0545 40.9498 49.5082 39.9058 50C38.7254 47.5476 37.5734 45.1526 36.3825 42.6777C35.5118 43.0444 34.6642 43.4024 33.7192 43.8004V32.6127Z" fill="white"/>
<path d="M32.022 28.8307V33.5148C30.1905 33.8711 28.0351 32.4146 27.2777 30.3654C26.4584 28.1477 27.4883 25.5615 29.6472 24.4179C31.7884 23.2847 34.5278 23.8721 35.9877 25.7787C37.4671 27.7097 37.3237 30.3828 35.6037 32.0948C34.4676 31.0589 33.3297 30.0213 32.0202 28.829L32.022 28.8307Z" fill="white"/>
</g>
<defs>
<clipPath id="clip0_192_514">
<rect width="30" height="36" fill="white" transform="translate(17 14)"/>
</clipPath>
</defs>
</svg>
