<svg width="64" height="64" viewBox="0 0 64 64" fill="none" xmlns="http://www.w3.org/2000/svg">
<circle cx="32" cy="32" r="32" fill="#0F3D5F"/>
<g clip-path="url(#clip0_192_681)">
<path d="M22.8083 32.9599C22.7969 28.4309 26.4789 24.7096 30.9854 24.6963C35.4995 24.683 39.189 28.3758 39.1966 32.9143C39.2042 37.4888 35.543 41.193 31.0119 41.1968C26.5073 41.2006 22.8196 37.4984 22.8064 32.9599H22.8083ZM31.6965 32.232C31.6965 31.3824 31.6965 30.5804 31.6965 29.7803C31.6965 29.2633 31.4166 28.9307 31.0005 28.9383C30.5959 28.9459 30.3141 29.2709 30.3122 29.7613C30.3065 30.7895 30.3046 31.8176 30.3122 32.8458C30.316 33.3799 30.594 33.6536 31.1254 33.6593C31.8251 33.665 32.5229 33.665 33.2226 33.6593C33.7294 33.6555 34.0528 33.3685 34.049 32.939C34.0452 32.5113 33.7218 32.2377 33.2075 32.232C32.7215 32.2282 32.2373 32.232 31.6984 32.232H31.6965ZM25.6166 32.9466C25.6166 32.5798 25.297 32.2472 24.9339 32.2358C24.5727 32.2225 24.2039 32.5836 24.2039 32.9485C24.2039 33.3115 24.5746 33.6726 24.9339 33.6593C25.2989 33.646 25.6166 33.3134 25.6166 32.9466ZM25.7452 30.5747C26.1328 30.569 26.4354 30.2668 26.4354 29.8848C26.4354 29.5066 26.1215 29.1949 25.7433 29.1911C25.3443 29.1873 25.0247 29.5123 25.0379 29.9076C25.0492 30.2934 25.3537 30.5823 25.7471 30.5766L25.7452 30.5747ZM25.73 35.3184C25.3405 35.3184 25.0379 35.6149 25.0341 36.0007C25.0303 36.3808 25.3348 36.6944 25.7168 36.702C26.112 36.7096 26.4392 36.3865 26.4335 35.995C26.4279 35.613 26.1196 35.3184 25.73 35.3184ZM34.0509 28.334C34.4461 28.334 34.7733 28.0109 34.762 27.6289C34.7506 27.2564 34.4329 26.9485 34.0604 26.9466C33.6727 26.9447 33.3398 27.2773 33.3493 27.6574C33.3588 28.0261 33.6765 28.334 34.0509 28.334ZM34.762 38.2567C34.7695 37.8899 34.4594 37.5706 34.0812 37.5592C33.6878 37.5459 33.3512 37.8576 33.3474 38.2415C33.3436 38.6083 33.6557 38.9333 34.0282 38.9466C34.4178 38.9599 34.7544 38.6463 34.762 38.2586V38.2567ZM31.6965 26.8268C31.6965 26.4258 31.4147 26.135 31.0195 26.1312C30.6318 26.1274 30.3235 26.422 30.316 26.8078C30.3065 27.2012 30.6356 27.5414 31.0195 27.5376C31.392 27.5319 31.6965 27.2126 31.6965 26.8287V26.8268ZM27.9729 28.3321C28.3549 28.3283 28.6688 28.0166 28.6688 27.6422C28.6688 27.2525 28.3341 26.9333 27.9389 26.9447C27.5568 26.9561 27.2675 27.2678 27.2732 27.6593C27.2807 28.0546 27.572 28.3359 27.9729 28.3321ZM36.2843 30.5747C36.6833 30.5747 36.9727 30.2915 36.9802 29.8962C36.9859 29.5104 36.689 29.2006 36.3032 29.1911C35.9061 29.1816 35.5846 29.499 35.5884 29.8962C35.5921 30.2782 35.8966 30.5747 36.2843 30.5766V30.5747ZM36.4167 32.958C36.4205 33.3381 36.7268 33.6536 37.0956 33.6593C37.4738 33.665 37.8029 33.3248 37.7972 32.9371C37.7915 32.5646 37.4757 32.2415 37.1107 32.2358C36.7306 32.2301 36.4129 32.5627 36.4167 32.958ZM36.2748 35.3184C35.8872 35.3222 35.5865 35.6244 35.5865 36.0064C35.5865 36.3884 35.8928 36.6982 36.2729 36.702C36.6776 36.7058 36.9897 36.3903 36.9783 35.9874C36.967 35.5921 36.6739 35.3127 36.2729 35.3165L36.2748 35.3184ZM28.6688 38.2301C28.6575 37.8557 28.3379 37.5554 27.9559 37.5592C27.5436 37.563 27.2543 37.8728 27.2732 38.2871C27.2921 38.671 27.6079 38.9618 27.9937 38.9466C28.37 38.9314 28.6802 38.6026 28.6688 38.232V38.2301ZM31.6965 39.0682C31.6965 38.6824 31.3939 38.3631 31.0214 38.3574C30.6393 38.3498 30.3084 38.6919 30.316 39.0853C30.3235 39.4711 30.6299 39.7676 31.0176 39.7638C31.4128 39.76 31.6965 39.4692 31.6965 39.0701V39.0682Z" fill="white"/>
<path d="M41.4868 23.3051C41.3809 23.2975 41.275 23.2842 41.1672 23.2842C37.8067 23.2842 34.4462 23.269 31.0857 23.2861C26.8383 23.307 23.2168 25.926 21.8893 29.9038C20.1476 35.1227 23.1828 40.8281 28.4835 42.2383C29.2721 42.4473 30.1023 42.5082 30.9174 42.6013C31.4299 42.6602 31.7003 42.8731 31.6965 43.3159C31.6927 43.7549 31.4072 44.0001 30.9004 44.002C25.8984 44.021 21.3787 40.3511 20.2799 35.4667C19.0526 30.0064 21.9649 24.7324 26.7834 22.7255C28.041 22.2028 29.3459 21.8987 30.7113 21.8968C34.1587 21.8892 37.6081 21.893 41.0556 21.8911C41.1993 21.8911 41.343 21.8911 41.4868 21.8911C41.5132 21.8493 41.5378 21.8075 41.5643 21.7638C41.3601 21.587 41.1407 21.4255 40.9535 21.2316C40.6263 20.8933 40.6244 20.4942 40.927 20.1977C41.2031 19.9279 41.6248 19.926 41.9331 20.2282C42.5515 20.8325 43.1604 21.4445 43.7618 22.0641C44.0795 22.3929 44.0795 22.773 43.7637 23.1018C43.1642 23.7232 42.5534 24.3352 41.935 24.9377C41.6248 25.2399 41.205 25.2418 40.9289 24.9719C40.6263 24.6792 40.6263 24.2744 40.9497 23.9399C41.1369 23.746 41.3563 23.5826 41.5605 23.4059C41.5359 23.3716 41.5114 23.3374 41.4868 23.3013V23.3051Z" fill="white"/>
<path d="M42.0352 32.9331C42.0447 33.2962 41.6816 33.6649 41.3166 33.6611C40.9516 33.6573 40.6264 33.3304 40.6188 32.9598C40.6112 32.5911 40.9214 32.2547 41.2901 32.2318C41.6532 32.2109 42.0258 32.5606 42.0352 32.9312V32.9331Z" fill="white"/>
<path d="M36.8648 41.9284C36.8591 42.3218 36.5244 42.6373 36.133 42.6221C35.7661 42.6069 35.4408 42.2705 35.4484 41.9094C35.454 41.535 35.8152 41.1967 36.1916 41.2119C36.566 41.2271 36.8724 41.5521 36.8667 41.9284H36.8648Z" fill="white"/>
<path d="M33.6632 42.2477C34.0489 42.2401 34.3931 42.5746 34.3893 42.9547C34.3856 43.3253 34.0641 43.6503 33.6953 43.6579C33.3095 43.6655 32.9653 43.3291 32.971 42.949C32.9767 42.5765 33.2944 42.2553 33.6651 42.2477H33.6632Z" fill="white"/>
<path d="M40.9516 34.9382C41.3468 34.9382 41.674 35.2613 41.6626 35.6452C41.6532 36.012 41.3298 36.3256 40.9553 36.3294C40.5658 36.3332 40.2405 36.0044 40.25 35.6129C40.2575 35.2328 40.562 34.9401 40.9516 34.9382Z" fill="white"/>
<path d="M39.9322 37.4297C40.318 37.4259 40.6205 37.7167 40.6338 38.1025C40.647 38.4997 40.3369 38.8323 39.9473 38.838C39.5615 38.8437 39.2438 38.5149 39.2476 38.1158C39.2514 37.7205 39.5388 37.4335 39.9322 37.4297Z" fill="white"/>
<path d="M38.3059 39.5699C38.6917 39.5737 38.9905 39.8739 38.9962 40.2598C39.0018 40.6608 38.6898 40.9782 38.2927 40.9744C37.8993 40.9706 37.593 40.6475 37.6043 40.2465C37.6157 39.8587 37.9201 39.5661 38.3059 39.5699Z" fill="white"/>
</g>
<defs>
<clipPath id="clip0_192_681">
<rect width="24" height="24" fill="white" transform="translate(20 20)"/>
</clipPath>
</defs>
</svg>
