<svg width="64" height="64" viewBox="0 0 64 64" fill="none" xmlns="http://www.w3.org/2000/svg">
<circle cx="32" cy="32" r="32" fill="#0F3D5F"/>
<g clip-path="url(#clip0_192_558)">
<path d="M30.8388 24.266H26.4883V19.4945H30.8487C30.7323 19.1518 30.6317 18.8601 30.533 18.5684C30.3515 18.0319 30.4561 17.5796 30.8329 17.2683C31.2315 16.9393 31.6655 16.9002 32.1647 17.2193C34.3528 18.6095 36.6474 19.7999 39.0249 20.8376C39.457 21.0256 39.7096 21.3585 39.7116 21.8401C39.7155 22.3414 39.459 22.6781 39.0052 22.8778C36.6317 23.9214 34.3331 25.1041 32.1469 26.5001C31.7089 26.7801 31.2117 26.7429 30.8487 26.4551C30.4738 26.1574 30.3456 25.7071 30.5074 25.2078C30.604 24.9083 30.7165 24.6146 30.8388 24.268V24.266Z" fill="white"/>
<path d="M38.1332 34.3868H33.7649V29.6289H38.1352C38.0089 29.2628 37.8925 28.9574 37.7938 28.646C37.632 28.137 37.7544 27.7043 38.1352 27.4027C38.5337 27.0875 38.95 27.0464 39.4275 27.3499C41.6274 28.7518 43.9379 29.9442 46.3252 30.9917C46.7554 31.1816 47.002 31.5164 47.002 31.9981C47.002 32.4817 46.7554 32.8165 46.3252 33.0064C43.9359 34.054 41.6274 35.2483 39.4275 36.6502C38.952 36.9537 38.5337 36.9145 38.1352 36.5974C37.7563 36.2958 37.632 35.8612 37.7938 35.354C37.8905 35.0525 38.003 34.7569 38.1332 34.3868Z" fill="white"/>
<path d="M30.8941 44.5193H26.5376V39.7595H30.8763C30.7579 39.4051 30.6593 39.1153 30.5626 38.8255C30.389 38.3028 30.5113 37.8407 30.898 37.5391C31.265 37.2533 31.7543 37.222 32.1982 37.5039C34.3863 38.8999 36.6869 40.0806 39.0605 41.1281C39.4985 41.3219 39.753 41.6489 39.7668 42.1188C39.7806 42.6162 39.5103 42.9686 39.0644 43.1624C36.6849 44.2002 34.3903 45.3926 32.2002 46.7827C31.701 47.0999 31.2709 47.0568 30.8704 46.7201C30.4975 46.4068 30.3909 45.9799 30.5606 45.4689C30.6612 45.1693 30.7678 44.8737 30.8921 44.5173L30.8941 44.5193Z" fill="white"/>
<path d="M31.2947 34.4612H26.5535V29.6367H31.2947V34.4612Z" fill="white"/>
<path d="M24.0319 29.6406V34.3613H20.7764V29.6406H24.0319Z" fill="white"/>
<path d="M20.7744 24.2425V19.5375H24.022V24.2425H20.7744Z" fill="white"/>
<path d="M20.8494 39.8319H24.0654V44.5565H20.8494V39.8319Z" fill="white"/>
<path d="M18.393 39.8475V44.5545H17.0671V39.8475H18.395H18.393Z" fill="white"/>
<path d="M18.3141 24.2542H17.0217V19.5355H18.3141V24.2542Z" fill="white"/>
<path d="M17 34.3515V29.6406H18.3121V34.3515H17Z" fill="white"/>
</g>
<defs>
<clipPath id="clip0_192_558">
<rect width="30" height="30" fill="white" transform="translate(17 17)"/>
</clipPath>
</defs>
</svg>
