<svg width="70" height="33" viewBox="0 0 70 33" fill="none" xmlns="http://www.w3.org/2000/svg">
<path d="M8.086 30.836C6.422 29.2067 5.122 27.1353 4.186 24.622C3.26733 22.1087 2.808 19.396 2.808 16.484C2.808 13.5027 3.29333 10.7207 4.264 8.138C5.252 5.538 6.656 3.39733 8.476 1.716H10.946V1.95C9.00467 3.77 7.54 5.96267 6.552 8.528C5.58133 11.076 5.096 13.728 5.096 16.484C5.096 19.1707 5.55533 21.736 6.474 24.18C7.41 26.624 8.77067 28.7647 10.556 30.602V30.836H8.086ZM25.7686 21.034C25.7686 21.866 25.5606 22.6633 25.1446 23.426C24.7286 24.1713 24.1133 24.7953 23.2986 25.298C22.5013 25.8007 21.5393 26.0867 20.4126 26.156V28.262H19.0086V26.156C17.4313 26.0173 16.1486 25.5147 15.1606 24.648C14.1726 23.764 13.67 22.646 13.6526 21.294H16.1746C16.244 22.022 16.5126 22.6547 16.9806 23.192C17.466 23.7293 18.142 24.0673 19.0086 24.206V17.706C17.8473 17.4113 16.9113 17.108 16.2006 16.796C15.49 16.484 14.8833 15.9987 14.3806 15.34C13.878 14.6813 13.6266 13.7973 13.6266 12.688C13.6266 11.284 14.112 10.1227 15.0826 9.204C16.0706 8.28533 17.3793 7.774 19.0086 7.67V5.512H20.4126V7.67C21.886 7.79133 23.0733 8.268 23.9746 9.1C24.876 9.91467 25.396 10.9807 25.5346 12.298H23.0126C22.926 11.6913 22.6573 11.1453 22.2066 10.66C21.756 10.1573 21.158 9.828 20.4126 9.672V16.016C21.5566 16.3107 22.484 16.614 23.1946 16.926C23.9226 17.2207 24.5293 17.6973 25.0146 18.356C25.5173 19.0147 25.7686 19.9073 25.7686 21.034ZM16.0446 12.558C16.0446 13.4073 16.296 14.0573 16.7986 14.508C17.3013 14.9587 18.038 15.3313 19.0086 15.626V9.62C18.1073 9.70667 17.388 10.0013 16.8506 10.504C16.3133 10.9893 16.0446 11.674 16.0446 12.558ZM20.4126 24.232C21.3486 24.128 22.0766 23.79 22.5966 23.218C23.134 22.646 23.4026 21.9613 23.4026 21.164C23.4026 20.3147 23.1426 19.6647 22.6226 19.214C22.1026 18.746 21.366 18.3733 20.4126 18.096V24.232ZM41.6825 9.048L34.4545 26H32.0625L39.3945 9.282H29.3585V7.254H41.6825V9.048ZM44.2798 24.102C46.4812 22.334 48.2058 20.8867 49.4538 19.76C50.7018 18.616 51.7505 17.4287 52.5998 16.198C53.4665 14.95 53.8998 13.728 53.8998 12.532C53.8998 11.4053 53.6225 10.5213 53.0678 9.88C52.5305 9.22133 51.6552 8.892 50.4418 8.892C49.2632 8.892 48.3445 9.26467 47.6858 10.01C47.0445 10.738 46.6978 11.7173 46.6458 12.948H44.3578C44.4272 11.0067 45.0165 9.50733 46.1258 8.45C47.2352 7.39267 48.6652 6.864 50.4158 6.864C52.2012 6.864 53.6138 7.358 54.6538 8.346C55.7112 9.334 56.2398 10.6947 56.2398 12.428C56.2398 13.8667 55.8065 15.2707 54.9398 16.64C54.0905 17.992 53.1198 19.188 52.0278 20.228C50.9358 21.2507 49.5405 22.4467 47.8418 23.816H56.7858V25.792H44.2798V24.102ZM59.4169 30.836V30.602C61.2022 28.7647 62.5542 26.624 63.4729 24.18C64.4089 21.736 64.8769 19.1707 64.8769 16.484C64.8769 13.728 64.3829 11.076 63.3949 8.528C62.4242 5.96267 60.9682 3.77 59.0269 1.95V1.716H61.4969C63.3169 3.39733 64.7122 5.538 65.6829 8.138C66.6709 10.7207 67.1649 13.5027 67.1649 16.484C67.1649 19.396 66.6969 22.1087 65.7609 24.622C64.8422 27.1353 63.5509 29.2067 61.8869 30.836H59.4169Z" fill="#4F4F4F"/>
</svg>
