<svg width="111" height="35" viewBox="0 0 111 35" fill="none" xmlns="http://www.w3.org/2000/svg">
<g opacity="0.5">
<path d="M19.33 34.58C17.41 32.7 15.91 30.31 14.83 27.41C13.77 24.51 13.24 21.38 13.24 18.02C13.24 14.58 13.8 11.37 14.92 8.39C16.06 5.39 17.68 2.92 19.78 0.98H22.63V1.25C20.39 3.35 18.7 5.88 17.56 8.84C16.44 11.78 15.88 14.84 15.88 18.02C15.88 21.12 16.41 24.08 17.47 26.9C18.55 29.72 20.12 32.19 22.18 34.31V34.58H19.33ZM39.733 23.27C39.733 24.23 39.493 25.15 39.013 26.03C38.533 26.89 37.823 27.61 36.883 28.19C35.963 28.77 34.853 29.1 33.553 29.18V31.61H31.933V29.18C30.113 29.02 28.633 28.44 27.493 27.44C26.353 26.42 25.773 25.13 25.753 23.57H28.663C28.743 24.41 29.053 25.14 29.593 25.76C30.153 26.38 30.933 26.77 31.933 26.93V19.43C30.593 19.09 29.513 18.74 28.693 18.38C27.873 18.02 27.173 17.46 26.593 16.7C26.013 15.94 25.723 14.92 25.723 13.64C25.723 12.02 26.283 10.68 27.403 9.62C28.543 8.56 30.053 7.97 31.933 7.85V5.36H33.553V7.85C35.253 7.99 36.623 8.54 37.663 9.5C38.703 10.44 39.303 11.67 39.463 13.19H36.553C36.453 12.49 36.143 11.86 35.623 11.3C35.103 10.72 34.413 10.34 33.553 10.16V17.48C34.873 17.82 35.943 18.17 36.763 18.53C37.603 18.87 38.303 19.42 38.863 20.18C39.443 20.94 39.733 21.97 39.733 23.27ZM28.513 13.49C28.513 14.47 28.803 15.22 29.383 15.74C29.963 16.26 30.813 16.69 31.933 17.03V10.1C30.893 10.2 30.063 10.54 29.443 11.12C28.823 11.68 28.513 12.47 28.513 13.49ZM33.553 26.96C34.633 26.84 35.473 26.45 36.073 25.79C36.693 25.13 37.003 24.34 37.003 23.42C37.003 22.44 36.703 21.69 36.103 21.17C35.503 20.63 34.653 20.2 33.553 19.88V26.96ZM44.0252 9.8V7.31H49.6652V29H46.9052V9.8H44.0252ZM54.3245 26.81C56.8645 24.77 58.8545 23.1 60.2945 21.8C61.7345 20.48 62.9445 19.11 63.9245 17.69C64.9245 16.25 65.4245 14.84 65.4245 13.46C65.4245 12.16 65.1045 11.14 64.4645 10.4C63.8445 9.64 62.8345 9.26 61.4345 9.26C60.0745 9.26 59.0145 9.69 58.2545 10.55C57.5145 11.39 57.1145 12.52 57.0545 13.94H54.4145C54.4945 11.7 55.1745 9.97 56.4545 8.75C57.7345 7.53 59.3845 6.92 61.4045 6.92C63.4645 6.92 65.0945 7.49 66.2945 8.63C67.5145 9.77 68.1245 11.34 68.1245 13.34C68.1245 15 67.6245 16.62 66.6245 18.2C65.6445 19.76 64.5245 21.14 63.2645 22.34C62.0045 23.52 60.3945 24.9 58.4345 26.48H68.7545V28.76H54.3245V26.81ZM72.2104 17.93C72.2104 14.49 72.7704 11.81 73.8904 9.89C75.0104 7.95 76.9704 6.98 79.7704 6.98C82.5504 6.98 84.5004 7.95 85.6204 9.89C86.7404 11.81 87.3004 14.49 87.3004 17.93C87.3004 21.43 86.7404 24.15 85.6204 26.09C84.5004 28.03 82.5504 29 79.7704 29C76.9704 29 75.0104 28.03 73.8904 26.09C72.7704 24.15 72.2104 21.43 72.2104 17.93ZM84.6004 17.93C84.6004 16.19 84.4804 14.72 84.2404 13.52C84.0204 12.3 83.5504 11.32 82.8304 10.58C82.1304 9.84 81.1104 9.47 79.7704 9.47C78.4104 9.47 77.3704 9.84 76.6504 10.58C75.9504 11.32 75.4804 12.3 75.2404 13.52C75.0204 14.72 74.9104 16.19 74.9104 17.93C74.9104 19.73 75.0204 21.24 75.2404 22.46C75.4804 23.68 75.9504 24.66 76.6504 25.4C77.3704 26.14 78.4104 26.51 79.7704 26.51C81.1104 26.51 82.1304 26.14 82.8304 25.4C83.5504 24.66 84.0204 23.68 84.2404 22.46C84.4804 21.24 84.6004 19.73 84.6004 17.93ZM90.9283 34.58V34.31C92.9883 32.19 94.5483 29.72 95.6083 26.9C96.6883 24.08 97.2283 21.12 97.2283 18.02C97.2283 14.84 96.6583 11.78 95.5183 8.84C94.3983 5.88 92.7183 3.35 90.4783 1.25V0.98H93.3283C95.4283 2.92 97.0383 5.39 98.1583 8.39C99.2983 11.37 99.8683 14.58 99.8683 18.02C99.8683 21.38 99.3283 24.51 98.2483 27.41C97.1883 30.31 95.6983 32.7 93.7783 34.58H90.9283Z" fill="#4F4F4F"/>
<line x1="0.891553" y1="24.0059" x2="110.892" y2="12.0059" stroke="#4F4F4F" stroke-width="2"/>
</g>
</svg>
