<svg width="122" height="35" viewBox="0 0 122 35" fill="none" xmlns="http://www.w3.org/2000/svg">
<path d="M19.33 34.58C17.41 32.7 15.91 30.31 14.83 27.41C13.77 24.51 13.24 21.38 13.24 18.02C13.24 14.58 13.8 11.37 14.92 8.39C16.06 5.39 17.68 2.92 19.78 0.98H22.63V1.25C20.39 3.35 18.7 5.88 17.56 8.84C16.44 11.78 15.88 14.84 15.88 18.02C15.88 21.12 16.41 24.08 17.47 26.9C18.55 29.72 20.12 32.19 22.18 34.31V34.58H19.33ZM39.733 23.27C39.733 24.23 39.493 25.15 39.013 26.03C38.533 26.89 37.823 27.61 36.883 28.19C35.963 28.77 34.853 29.1 33.553 29.18V31.61H31.933V29.18C30.113 29.02 28.633 28.44 27.493 27.44C26.353 26.42 25.773 25.13 25.753 23.57H28.663C28.743 24.41 29.053 25.14 29.593 25.76C30.153 26.38 30.933 26.77 31.933 26.93V19.43C30.593 19.09 29.513 18.74 28.693 18.38C27.873 18.02 27.173 17.46 26.593 16.7C26.013 15.94 25.723 14.92 25.723 13.64C25.723 12.02 26.283 10.68 27.403 9.62C28.543 8.56 30.053 7.97 31.933 7.85V5.36H33.553V7.85C35.253 7.99 36.623 8.54 37.663 9.5C38.703 10.44 39.303 11.67 39.463 13.19H36.553C36.453 12.49 36.143 11.86 35.623 11.3C35.103 10.72 34.413 10.34 33.553 10.16V17.48C34.873 17.82 35.943 18.17 36.763 18.53C37.603 18.87 38.303 19.42 38.863 20.18C39.443 20.94 39.733 21.97 39.733 23.27ZM28.513 13.49C28.513 14.47 28.803 15.22 29.383 15.74C29.963 16.26 30.813 16.69 31.933 17.03V10.1C30.893 10.2 30.063 10.54 29.443 11.12C28.823 11.68 28.513 12.47 28.513 13.49ZM33.553 26.96C34.633 26.84 35.473 26.45 36.073 25.79C36.693 25.13 37.003 24.34 37.003 23.42C37.003 22.44 36.703 21.69 36.103 21.17C35.503 20.63 34.653 20.2 33.553 19.88V26.96ZM44.4152 26.81C46.9552 24.77 48.9452 23.1 50.3852 21.8C51.8252 20.48 53.0352 19.11 54.0152 17.69C55.0152 16.25 55.5152 14.84 55.5152 13.46C55.5152 12.16 55.1952 11.14 54.5552 10.4C53.9352 9.64 52.9252 9.26 51.5252 9.26C50.1652 9.26 49.1052 9.69 48.3452 10.55C47.6052 11.39 47.2052 12.52 47.1452 13.94H44.5052C44.5852 11.7 45.2652 9.97 46.5452 8.75C47.8252 7.53 49.4752 6.92 51.4952 6.92C53.5552 6.92 55.1852 7.49 56.3852 8.63C57.6052 9.77 58.2152 11.34 58.2152 13.34C58.2152 15 57.7152 16.62 56.7152 18.2C55.7352 19.76 54.6152 21.14 53.3552 22.34C52.0952 23.52 50.4852 24.9 48.5252 26.48H58.8452V28.76H44.4152V26.81ZM61.641 24.17V22.1L72.171 7.52H75.441V21.8H78.441V24.17H75.441V29H72.741V24.17H61.641ZM72.861 10.37L64.791 21.8H72.861V10.37ZM81.4682 17.93C81.4682 14.49 82.0282 11.81 83.1482 9.89C84.2682 7.95 86.2282 6.98 89.0282 6.98C91.8082 6.98 93.7582 7.95 94.8782 9.89C95.9982 11.81 96.5582 14.49 96.5582 17.93C96.5582 21.43 95.9982 24.15 94.8782 26.09C93.7582 28.03 91.8082 29 89.0282 29C86.2282 29 84.2682 28.03 83.1482 26.09C82.0282 24.15 81.4682 21.43 81.4682 17.93ZM93.8582 17.93C93.8582 16.19 93.7382 14.72 93.4982 13.52C93.2782 12.3 92.8082 11.32 92.0882 10.58C91.3882 9.84 90.3682 9.47 89.0282 9.47C87.6682 9.47 86.6282 9.84 85.9082 10.58C85.2082 11.32 84.7382 12.3 84.4982 13.52C84.2782 14.72 84.1682 16.19 84.1682 17.93C84.1682 19.73 84.2782 21.24 84.4982 22.46C84.7382 23.68 85.2082 24.66 85.9082 25.4C86.6282 26.14 87.6682 26.51 89.0282 26.51C90.3682 26.51 91.3882 26.14 92.0882 25.4C92.8082 24.66 93.2782 23.68 93.4982 22.46C93.7382 21.24 93.8582 19.73 93.8582 17.93ZM100.186 34.58V34.31C102.246 32.19 103.806 29.72 104.866 26.9C105.946 24.08 106.486 21.12 106.486 18.02C106.486 14.84 105.916 11.78 104.776 8.84C103.656 5.88 101.976 3.35 99.7361 1.25V0.98H102.586C104.686 2.92 106.296 5.39 107.416 8.39C108.556 11.37 109.126 14.58 109.126 18.02C109.126 21.38 108.586 24.51 107.506 27.41C106.446 30.31 104.956 32.7 103.036 34.58H100.186Z" fill="#4F4F4F"/>
<line x1="0.925825" y1="24.0028" x2="121.926" y2="15.0028" stroke="#4F4F4F" stroke-width="2"/>
</svg>
