<svg width="60" height="60" viewBox="0 0 60 60" fill="none" xmlns="http://www.w3.org/2000/svg">
<circle opacity="0.1" cx="30" cy="30" r="30" fill="#5EBEE6"/>
<g clip-path="url(#clip0_198_1023)">
<path d="M16.8289 34.4508C16.6178 33.0988 16.4127 31.7963 16.2106 30.4939C15.8173 27.9476 15.4301 25.4003 15.0269 22.855C14.9498 22.3686 15.0219 21.9517 15.4611 21.6836C15.8984 21.4166 16.3146 21.5228 16.7118 21.8196C18.4808 23.1439 20.2568 24.4592 22.0278 25.7815C22.9814 26.4933 23.7138 26.3752 24.3762 25.3884C25.845 23.2015 27.3098 21.0116 28.7797 18.8246C29.5201 17.7227 30.4836 17.7237 31.2271 18.8276C32.6799 20.9858 34.1307 23.1449 35.5795 25.306C36.3159 26.404 36.9913 26.5151 38.0629 25.715C39.7939 24.4225 41.5309 23.138 43.2579 21.8405C43.6691 21.5318 44.0924 21.4007 44.5486 21.6836C44.9849 21.9537 45.0499 22.3706 44.9739 22.858C44.4436 26.2521 43.9273 29.6491 43.406 33.0452C43.391 33.1424 43.3589 33.2377 43.3399 33.335C43.2729 33.6884 43.3229 34.2126 43.1128 34.3535C42.8316 34.5412 42.3494 34.4478 41.9531 34.4478C33.7995 34.4508 25.6469 34.4498 17.4933 34.4498H16.8299L16.8289 34.4508Z" fill="#62BDF1"/>
<path d="M16.8159 36.6599H43.1329C43.1329 37.7528 43.1789 38.824 43.1148 39.8891C43.0778 40.5056 42.5765 40.8908 41.9312 40.9801C41.7511 41.0049 41.565 40.999 41.3819 40.999C33.7946 40.999 26.2073 40.999 18.619 40.999C17.2962 40.999 16.8159 40.5195 16.8149 39.1982C16.8149 38.3733 16.8149 37.5473 16.8149 36.6589L16.8159 36.6599Z" fill="#62BDF1"/>
</g>
<defs>
<clipPath id="clip0_198_1023">
<rect width="30" height="23" fill="white" transform="translate(15 18)"/>
</clipPath>
</defs>
</svg>
