<svg width="24" height="24" viewBox="0 0 24 24" fill="none" xmlns="http://www.w3.org/2000/svg">
<circle opacity="0.7" cx="12" cy="12" r="12" fill="#4A4858"/>
<g opacity="0.8">
<path d="M6.75 8.5H7.91667H17.25" stroke="white" stroke-linecap="round" stroke-linejoin="round"/>
<path d="M16.0837 8.49999V16.6667C16.0837 16.9761 15.9607 17.2728 15.742 17.4916C15.5232 17.7104 15.2264 17.8333 14.917 17.8333H9.08366C8.77424 17.8333 8.47749 17.7104 8.2587 17.4916C8.03991 17.2728 7.91699 16.9761 7.91699 16.6667V8.49999M9.66699 8.49999V7.33332C9.66699 7.0239 9.78991 6.72716 10.0087 6.50837C10.2275 6.28957 10.5242 6.16666 10.8337 6.16666H13.167C13.4764 6.16666 13.7732 6.28957 13.992 6.50837C14.2107 6.72716 14.3337 7.0239 14.3337 7.33332V8.49999" stroke="white" stroke-linecap="round" stroke-linejoin="round"/>
</g>
</svg>
