<svg width="157" height="64" viewBox="0 0 157 64" fill="none" xmlns="http://www.w3.org/2000/svg">
<circle opacity="0.21" cx="22.5" cy="28.5" r="22.5" fill="white"/>
<mask id="path-2-inside-1_192_494" fill="white">
<path d="M22.264 39.662H7.848V35.786H22.264V39.662ZM27.228 45H22.298L14.342 23.92H15.702L7.746 45H2.986L12.574 20.69H17.64L27.228 45ZM34.6565 45H30.2025V20.52H34.6905V33.202H33.6365C33.7951 32.0913 34.1691 31.094 34.7585 30.21C35.3705 29.326 36.1638 28.6347 37.1385 28.136C38.1358 27.6147 39.2691 27.354 40.5385 27.354C42.1025 27.354 43.5305 27.7393 44.8225 28.51C46.1145 29.2807 47.1345 30.346 47.8825 31.706C48.6531 33.066 49.0385 34.6527 49.0385 36.466C49.0385 38.2567 48.6531 39.832 47.8825 41.192C47.1118 42.552 46.0805 43.6173 44.7885 44.388C43.4965 45.1587 42.0458 45.544 40.4365 45.544C38.9631 45.544 37.6938 45.2267 36.6285 44.592C35.5631 43.9573 34.7585 43.1073 34.2145 42.042C33.6705 40.954 33.4325 39.764 33.5005 38.472L34.4525 37.86C34.5658 38.6307 34.8491 39.322 35.3025 39.934C35.7558 40.5233 36.3338 40.988 37.0365 41.328C37.7618 41.6453 38.5438 41.804 39.3825 41.804C40.3798 41.804 41.2525 41.5773 42.0005 41.124C42.7485 40.6707 43.3265 40.036 43.7345 39.22C44.1651 38.404 44.3805 37.486 44.3805 36.466C44.3805 35.4007 44.1765 34.4713 43.7685 33.678C43.3831 32.862 42.8391 32.2273 42.1365 31.774C41.4338 31.3207 40.5838 31.094 39.5865 31.094C38.6345 31.094 37.7845 31.3207 37.0365 31.774C36.3111 32.2273 35.7331 32.862 35.3025 33.678C34.8945 34.4713 34.6905 35.4347 34.6905 36.568V40.716L34.6565 40.954V45ZM61.189 45.544C59.3303 45.544 57.687 45.1587 56.259 44.388C54.831 43.5947 53.7203 42.518 52.927 41.158C52.1336 39.7753 51.737 38.2113 51.737 36.466C51.737 34.6753 52.1336 33.1 52.927 31.74C53.7203 30.38 54.831 29.3147 56.259 28.544C57.687 27.7507 59.3303 27.354 61.189 27.354C63.0476 27.354 64.691 27.7507 66.119 28.544C67.547 29.3147 68.6576 30.38 69.451 31.74C70.2443 33.1 70.641 34.664 70.641 36.432C70.641 38.2 70.2443 39.7753 69.451 41.158C68.6576 42.518 67.547 43.5947 66.119 44.388C64.691 45.1587 63.0476 45.544 61.189 45.544ZM61.189 41.804C62.141 41.804 62.9796 41.5773 63.705 41.124C64.4303 40.6707 64.997 40.0473 65.405 39.254C65.813 38.438 66.017 37.5087 66.017 36.466C66.017 35.4007 65.813 34.4713 65.405 33.678C64.997 32.862 64.4303 32.2273 63.705 31.774C62.9796 31.3207 62.141 31.094 61.189 31.094C60.237 31.094 59.3983 31.3207 58.673 31.774C57.9476 32.2273 57.381 32.862 56.973 33.678C56.565 34.4713 56.361 35.4007 56.361 36.466C56.361 37.5087 56.565 38.438 56.973 39.254C57.381 40.0473 57.9476 40.6707 58.673 41.124C59.3983 41.5773 60.237 41.804 61.189 41.804ZM90.3522 45H85.8982V41.736L85.8642 40.784V27.898H90.3522V45ZM86.1022 37.86L87.0202 38.472C87.0655 39.8773 86.8049 41.1127 86.2382 42.178C85.6942 43.2207 84.9122 44.048 83.8922 44.66C82.8949 45.2493 81.7162 45.544 80.3562 45.544C78.3389 45.544 76.7409 44.9547 75.5622 43.776C74.3835 42.5747 73.7942 40.8407 73.7942 38.574V27.898H78.2822V38.098C78.2822 39.322 78.5769 40.2513 79.1662 40.886C79.7782 41.498 80.6055 41.804 81.6482 41.804C82.3962 41.804 83.0875 41.6453 83.7222 41.328C84.3569 40.988 84.8895 40.5233 85.3202 39.934C85.7509 39.322 86.0115 38.6307 86.1022 37.86ZM105.369 45H101.085C99.5432 45 98.3758 44.6147 97.5825 43.844C96.8118 43.0507 96.4265 41.8833 96.4265 40.342V23.376H100.915V39.56C100.915 40.172 101.051 40.6253 101.323 40.92C101.595 41.192 102.025 41.328 102.615 41.328H105.369V45ZM105.165 31.502H93.4345V27.898H105.165V31.502ZM136.214 20.69V35.412C136.214 38.608 135.285 41.1013 133.426 42.892C131.59 44.66 129.052 45.544 125.81 45.544C122.592 45.544 120.053 44.66 118.194 42.892C116.358 41.1013 115.44 38.608 115.44 35.412V20.69H120.03V35.412C120.03 37.2707 120.54 38.7553 121.56 39.866C122.58 40.954 123.997 41.498 125.81 41.498C127.646 41.498 129.074 40.954 130.094 39.866C131.137 38.7553 131.658 37.2707 131.658 35.412V20.69H136.214ZM139.18 42.45L141.628 39.662C142.399 40.4327 143.317 41.0447 144.382 41.498C145.47 41.9513 146.581 42.178 147.714 42.178C148.757 42.178 149.584 41.9853 150.196 41.6C150.831 41.2147 151.148 40.7387 151.148 40.172C151.148 39.5827 150.865 39.152 150.298 38.88C149.754 38.5853 148.734 38.336 147.238 38.132C144.745 37.7693 142.92 37.1913 141.764 36.398C140.608 35.582 140.03 34.46 140.03 33.032C140.03 31.8987 140.348 30.9127 140.982 30.074C141.617 29.2127 142.501 28.544 143.634 28.068C144.768 27.592 146.048 27.354 147.476 27.354C149.176 27.354 150.672 27.626 151.964 28.17C153.279 28.714 154.401 29.428 155.33 30.312L152.882 33.1C152.18 32.3747 151.364 31.7967 150.434 31.366C149.528 30.9353 148.553 30.72 147.51 30.72C146.536 30.72 145.754 30.9013 145.164 31.264C144.598 31.6267 144.314 32.08 144.314 32.624C144.314 33.1 144.598 33.4627 145.164 33.712C145.731 33.9613 146.728 34.1767 148.156 34.358C150.604 34.7207 152.44 35.3213 153.664 36.16C154.888 36.9987 155.5 38.2113 155.5 39.798C155.5 40.954 155.16 41.974 154.48 42.858C153.8 43.7193 152.86 44.388 151.658 44.864C150.48 45.3173 149.097 45.544 147.51 45.544C145.81 45.544 144.246 45.2607 142.818 44.694C141.39 44.1273 140.178 43.3793 139.18 42.45Z"/>
</mask>
<path d="M22.264 39.662H7.848V35.786H22.264V39.662ZM27.228 45H22.298L14.342 23.92H15.702L7.746 45H2.986L12.574 20.69H17.64L27.228 45ZM34.6565 45H30.2025V20.52H34.6905V33.202H33.6365C33.7951 32.0913 34.1691 31.094 34.7585 30.21C35.3705 29.326 36.1638 28.6347 37.1385 28.136C38.1358 27.6147 39.2691 27.354 40.5385 27.354C42.1025 27.354 43.5305 27.7393 44.8225 28.51C46.1145 29.2807 47.1345 30.346 47.8825 31.706C48.6531 33.066 49.0385 34.6527 49.0385 36.466C49.0385 38.2567 48.6531 39.832 47.8825 41.192C47.1118 42.552 46.0805 43.6173 44.7885 44.388C43.4965 45.1587 42.0458 45.544 40.4365 45.544C38.9631 45.544 37.6938 45.2267 36.6285 44.592C35.5631 43.9573 34.7585 43.1073 34.2145 42.042C33.6705 40.954 33.4325 39.764 33.5005 38.472L34.4525 37.86C34.5658 38.6307 34.8491 39.322 35.3025 39.934C35.7558 40.5233 36.3338 40.988 37.0365 41.328C37.7618 41.6453 38.5438 41.804 39.3825 41.804C40.3798 41.804 41.2525 41.5773 42.0005 41.124C42.7485 40.6707 43.3265 40.036 43.7345 39.22C44.1651 38.404 44.3805 37.486 44.3805 36.466C44.3805 35.4007 44.1765 34.4713 43.7685 33.678C43.3831 32.862 42.8391 32.2273 42.1365 31.774C41.4338 31.3207 40.5838 31.094 39.5865 31.094C38.6345 31.094 37.7845 31.3207 37.0365 31.774C36.3111 32.2273 35.7331 32.862 35.3025 33.678C34.8945 34.4713 34.6905 35.4347 34.6905 36.568V40.716L34.6565 40.954V45ZM61.189 45.544C59.3303 45.544 57.687 45.1587 56.259 44.388C54.831 43.5947 53.7203 42.518 52.927 41.158C52.1336 39.7753 51.737 38.2113 51.737 36.466C51.737 34.6753 52.1336 33.1 52.927 31.74C53.7203 30.38 54.831 29.3147 56.259 28.544C57.687 27.7507 59.3303 27.354 61.189 27.354C63.0476 27.354 64.691 27.7507 66.119 28.544C67.547 29.3147 68.6576 30.38 69.451 31.74C70.2443 33.1 70.641 34.664 70.641 36.432C70.641 38.2 70.2443 39.7753 69.451 41.158C68.6576 42.518 67.547 43.5947 66.119 44.388C64.691 45.1587 63.0476 45.544 61.189 45.544ZM61.189 41.804C62.141 41.804 62.9796 41.5773 63.705 41.124C64.4303 40.6707 64.997 40.0473 65.405 39.254C65.813 38.438 66.017 37.5087 66.017 36.466C66.017 35.4007 65.813 34.4713 65.405 33.678C64.997 32.862 64.4303 32.2273 63.705 31.774C62.9796 31.3207 62.141 31.094 61.189 31.094C60.237 31.094 59.3983 31.3207 58.673 31.774C57.9476 32.2273 57.381 32.862 56.973 33.678C56.565 34.4713 56.361 35.4007 56.361 36.466C56.361 37.5087 56.565 38.438 56.973 39.254C57.381 40.0473 57.9476 40.6707 58.673 41.124C59.3983 41.5773 60.237 41.804 61.189 41.804ZM90.3522 45H85.8982V41.736L85.8642 40.784V27.898H90.3522V45ZM86.1022 37.86L87.0202 38.472C87.0655 39.8773 86.8049 41.1127 86.2382 42.178C85.6942 43.2207 84.9122 44.048 83.8922 44.66C82.8949 45.2493 81.7162 45.544 80.3562 45.544C78.3389 45.544 76.7409 44.9547 75.5622 43.776C74.3835 42.5747 73.7942 40.8407 73.7942 38.574V27.898H78.2822V38.098C78.2822 39.322 78.5769 40.2513 79.1662 40.886C79.7782 41.498 80.6055 41.804 81.6482 41.804C82.3962 41.804 83.0875 41.6453 83.7222 41.328C84.3569 40.988 84.8895 40.5233 85.3202 39.934C85.7509 39.322 86.0115 38.6307 86.1022 37.86ZM105.369 45H101.085C99.5432 45 98.3758 44.6147 97.5825 43.844C96.8118 43.0507 96.4265 41.8833 96.4265 40.342V23.376H100.915V39.56C100.915 40.172 101.051 40.6253 101.323 40.92C101.595 41.192 102.025 41.328 102.615 41.328H105.369V45ZM105.165 31.502H93.4345V27.898H105.165V31.502ZM136.214 20.69V35.412C136.214 38.608 135.285 41.1013 133.426 42.892C131.59 44.66 129.052 45.544 125.81 45.544C122.592 45.544 120.053 44.66 118.194 42.892C116.358 41.1013 115.44 38.608 115.44 35.412V20.69H120.03V35.412C120.03 37.2707 120.54 38.7553 121.56 39.866C122.58 40.954 123.997 41.498 125.81 41.498C127.646 41.498 129.074 40.954 130.094 39.866C131.137 38.7553 131.658 37.2707 131.658 35.412V20.69H136.214ZM139.18 42.45L141.628 39.662C142.399 40.4327 143.317 41.0447 144.382 41.498C145.47 41.9513 146.581 42.178 147.714 42.178C148.757 42.178 149.584 41.9853 150.196 41.6C150.831 41.2147 151.148 40.7387 151.148 40.172C151.148 39.5827 150.865 39.152 150.298 38.88C149.754 38.5853 148.734 38.336 147.238 38.132C144.745 37.7693 142.92 37.1913 141.764 36.398C140.608 35.582 140.03 34.46 140.03 33.032C140.03 31.8987 140.348 30.9127 140.982 30.074C141.617 29.2127 142.501 28.544 143.634 28.068C144.768 27.592 146.048 27.354 147.476 27.354C149.176 27.354 150.672 27.626 151.964 28.17C153.279 28.714 154.401 29.428 155.33 30.312L152.882 33.1C152.18 32.3747 151.364 31.7967 150.434 31.366C149.528 30.9353 148.553 30.72 147.51 30.72C146.536 30.72 145.754 30.9013 145.164 31.264C144.598 31.6267 144.314 32.08 144.314 32.624C144.314 33.1 144.598 33.4627 145.164 33.712C145.731 33.9613 146.728 34.1767 148.156 34.358C150.604 34.7207 152.44 35.3213 153.664 36.16C154.888 36.9987 155.5 38.2113 155.5 39.798C155.5 40.954 155.16 41.974 154.48 42.858C153.8 43.7193 152.86 44.388 151.658 44.864C150.48 45.3173 149.097 45.544 147.51 45.544C145.81 45.544 144.246 45.2607 142.818 44.694C141.39 44.1273 140.178 43.3793 139.18 42.45Z" fill="white"/>
<path d="M22.264 39.662V139.662H122.264V39.662H22.264ZM7.848 39.662H-92.152V139.662H7.848V39.662ZM7.848 35.786V-64.214H-92.152V35.786H7.848ZM22.264 35.786H122.264V-64.214H22.264V35.786ZM27.228 45V145H174.165L120.254 8.31001L27.228 45ZM22.298 45L-71.2603 80.3107L-46.8453 145H22.298V45ZM14.342 23.92V-76.08H-130.285L-79.2163 59.2307L14.342 23.92ZM15.702 23.92L109.26 59.2307L160.329 -76.08H15.702V23.92ZM7.746 45V145H76.8893L101.304 80.3107L7.746 45ZM2.986 45L-90.04 8.31001L-143.951 145H2.986V45ZM12.574 20.69V-79.31H-55.4822L-80.452 -16L12.574 20.69ZM17.64 20.69L110.666 -16L85.6962 -79.31H17.64V20.69ZM22.264 -60.338H7.848V139.662H22.264V-60.338ZM107.848 39.662V35.786H-92.152V39.662H107.848ZM7.848 135.786H22.264V-64.214H7.848V135.786ZM-77.736 35.786V39.662H122.264V35.786H-77.736ZM27.228 -55H22.298V145H27.228V-55ZM115.856 9.68929L107.9 -11.3907L-79.2163 59.2307L-71.2603 80.3107L115.856 9.68929ZM14.342 123.92H15.702V-76.08H14.342V123.92ZM-77.8563 -11.3907L-85.8123 9.68929L101.304 80.3107L109.26 59.2307L-77.8563 -11.3907ZM7.746 -55H2.986V145H7.746V-55ZM96.012 81.69L105.6 57.38L-80.452 -16L-90.04 8.31001L96.012 81.69ZM12.574 120.69H17.64V-79.31H12.574V120.69ZM-75.386 57.38L-65.798 81.69L120.254 8.31001L110.666 -16L-75.386 57.38ZM34.6565 45V145H134.656V45H34.6565ZM30.2025 45H-69.7975V145H30.2025V45ZM30.2025 20.52V-79.48H-69.7975V20.52H30.2025ZM34.6905 20.52H134.69V-79.48H34.6905V20.52ZM34.6905 33.202V133.202H134.69V33.202H34.6905ZM33.6365 33.202L-65.3585 19.0599L-81.6645 133.202H33.6365V33.202ZM34.7585 30.21L-47.4607 -26.711L-47.96 -25.9898L-48.4466 -25.26L34.7585 30.21ZM37.1385 28.136L82.686 117.161L83.0759 116.961L83.4639 116.759L37.1385 28.136ZM44.8225 28.51L-6.4054 114.392L-6.40535 114.392L44.8225 28.51ZM47.8825 31.706L-39.7391 79.8979L-39.4329 80.4546L-39.1197 81.0073L47.8825 31.706ZM47.8825 41.192L-39.1197 -8.1093L-39.1198 -8.10923L47.8825 41.192ZM44.7885 44.388L-6.43935 -41.494H-6.43935L44.7885 44.388ZM36.6285 44.592L87.809 -41.3181L87.809 -41.3182L36.6285 44.592ZM34.2145 42.042L-55.2282 86.7634L-55.0388 87.1423L-54.8461 87.5197L34.2145 42.042ZM33.5005 38.472L-20.5753 -45.6458L-63.6687 -17.9429L-66.3613 33.2161L33.5005 38.472ZM34.4525 37.86L133.388 23.3106L110.825 -130.118L-19.6233 -46.2579L34.4525 37.86ZM35.3025 39.934L-45.0533 99.4567L-44.5132 100.186L-43.9599 100.905L35.3025 39.934ZM37.0365 41.328L-6.51964 131.344L-4.79782 132.177L-3.04541 132.944L37.0365 41.328ZM42.0005 41.124L93.8306 126.644L93.8306 126.644L42.0005 41.124ZM43.7345 39.22L-44.704 -7.45584L-45.2169 -6.48412L-45.7082 -5.50137L43.7345 39.22ZM43.7685 33.678L-46.6564 76.3786L-45.934 77.9084L-45.1603 79.4128L43.7685 33.678ZM42.1365 31.774L96.3492 -52.2557L96.3491 -52.2557L42.1365 31.774ZM37.0365 31.774L-14.7936 -53.7458L-15.381 -53.3898L-15.9635 -53.0258L37.0365 31.774ZM35.3025 33.678L-53.136 -12.9979L-53.3837 -12.5286L-53.6263 -12.0568L35.3025 33.678ZM34.6905 40.716L133.685 54.8582L134.69 47.8228V40.716H34.6905ZM34.6565 40.954L-64.3385 26.8118L-65.3435 33.8472V40.954H34.6565ZM34.6565 -55H30.2025V145H34.6565V-55ZM130.202 45V20.52H-69.7975V45H130.202ZM30.2025 120.52H34.6905V-79.48H30.2025V120.52ZM-65.3095 20.52V33.202H134.69V20.52H-65.3095ZM34.6905 -66.798H33.6365V133.202H34.6905V-66.798ZM132.631 47.3441C130.799 60.1678 126.119 73.4464 117.964 85.68L-48.4466 -25.26C-57.781 -11.2584 -63.2092 4.01486 -65.3585 19.0599L132.631 47.3441ZM116.978 87.131C108.023 100.065 96.1161 110.29 82.686 117.161L-8.40908 -60.8888C-23.7885 -53.0203 -37.2824 -41.413 -47.4607 -26.711L116.978 87.131ZM83.4639 116.759C68.4211 124.622 53.3149 127.354 40.5385 127.354V-72.646C25.2234 -72.646 7.85055 -69.3925 -9.187 -60.4865L83.4639 116.759ZM40.5385 127.354C24.8134 127.354 8.4226 123.237 -6.4054 114.392L96.0503 -57.3719C78.6383 -67.758 59.3915 -72.646 40.5385 -72.646V127.354ZM-6.40535 114.392C-20.8778 105.759 -32.2056 93.5952 -39.7391 79.8979L135.504 -16.4859C126.475 -32.9032 113.107 -47.1979 96.0503 -57.372L-6.40535 114.392ZM-39.1197 81.0073C-48.1471 65.0766 -50.9615 49.1409 -50.9615 36.466H149.038C149.038 20.1644 145.453 1.05535 134.885 -17.5953L-39.1197 81.0073ZM-50.9615 36.466C-50.9615 23.5249 -48.043 7.63757 -39.1197 -8.1093L134.885 90.4933C145.349 72.0264 149.038 52.9884 149.038 36.466H-50.9615ZM-39.1198 -8.10923C-31.6878 -21.2244 -20.6376 -33.0248 -6.43935 -41.494L96.0163 130.27C112.799 120.259 125.911 106.328 134.885 90.4932L-39.1198 -8.10923ZM-6.43935 -41.494C8.84351 -50.61 25.3153 -54.456 40.4365 -54.456V145.544C58.7763 145.544 78.1494 140.927 96.0163 130.27L-6.43935 -41.494ZM40.4365 -54.456C53.5682 -54.456 70.7047 -51.508 87.809 -41.3181L-14.5521 130.502C4.68292 141.961 24.358 145.544 40.4365 145.544V-54.456ZM87.809 -41.3182C102.302 -32.684 114.928 -19.7823 123.275 -3.4357L-54.8461 87.5197C-45.4109 105.997 -31.1757 120.599 -14.552 130.502L87.809 -41.3182ZM123.657 -2.67937C131.346 12.6978 134.144 28.8777 133.362 43.7279L-66.3613 33.2161C-67.2789 50.6503 -64.0048 69.2102 -55.2282 86.7634L123.657 -2.67937ZM87.5762 122.59L88.5282 121.978L-19.6233 -46.2579L-20.5753 -45.6458L87.5762 122.59ZM-64.4834 52.4094C-62.031 69.0862 -55.5382 85.302 -45.0533 99.4567L115.658 -19.5887C125.237 -6.658 131.163 8.17516 133.388 23.3106L-64.4834 52.4094ZM-43.9599 100.905C-33.55 114.438 -20.5027 124.578 -6.51964 131.344L80.5926 -48.6879C93.1703 -42.6019 105.062 -33.3913 114.565 -21.0371L-43.9599 100.905ZM-3.04541 132.944C11.0601 139.115 25.5803 141.804 39.3825 141.804V-58.196C51.5073 -58.196 64.4635 -55.8242 77.1183 -50.2877L-3.04541 132.944ZM39.3825 141.804C56.0378 141.804 75.3573 137.84 93.8306 126.644L-9.82968 -44.3958C7.14761 -54.6851 24.7218 -58.196 39.3825 -58.196V141.804ZM93.8306 126.644C111.429 115.978 124.713 100.869 133.177 83.9414L-45.7082 -5.50137C-38.0603 -20.7972 -25.9318 -34.637 -9.8297 -44.3958L93.8306 126.644ZM132.173 85.8958C140.972 69.2236 144.38 52.0063 144.38 36.466H-55.6195C-55.6195 22.9657 -52.6419 7.58442 -44.704 -7.45584L132.173 85.8958ZM144.38 36.466C144.38 22.5604 141.665 5.38119 132.697 -12.0568L-45.1603 79.4128C-53.3124 63.5615 -55.6195 48.2409 -55.6195 36.466H144.38ZM134.193 -9.0226C126.49 -25.3361 113.988 -40.8755 96.3492 -52.2557L-12.0762 115.804C-28.3102 105.33 -39.7235 91.0601 -46.6564 76.3786L134.193 -9.0226ZM96.3491 -52.2557C76.5973 -64.9988 56.0594 -68.906 39.5865 -68.906V131.094C25.1082 131.094 6.27027 127.64 -12.0762 115.804L96.3491 -52.2557ZM39.5865 -68.906C22.0315 -68.906 2.95419 -64.5021 -14.7936 -53.7458L88.8666 117.294C72.6147 127.143 55.2374 131.094 39.5865 131.094V-68.906ZM-15.9635 -53.0258C-32.8324 -42.4827 -45.1352 -28.1573 -53.136 -12.9979L123.741 80.3539C116.601 93.8813 105.455 106.937 90.0364 116.574L-15.9635 -53.0258ZM-53.6263 -12.0568C-63.0106 6.19037 -65.3095 23.7151 -65.3095 36.568H134.69C134.69 47.1542 132.8 62.7523 124.231 79.4128L-53.6263 -12.0568ZM-65.3095 36.568V40.716H134.69V36.568H-65.3095ZM-64.3045 26.5738L-64.3385 26.8118L133.651 55.0962L133.685 54.8582L-64.3045 26.5738ZM-65.3435 40.954V45H134.656V40.954H-65.3435ZM56.259 44.388L7.69466 131.804L8.22839 132.1L8.7657 132.39L56.259 44.388ZM52.927 41.158L-33.8097 90.9249L-33.6314 91.2357L-33.4509 91.5451L52.927 41.158ZM52.927 31.74L-33.4509 -18.6471L-33.4509 -18.6471L52.927 31.74ZM56.259 28.544L103.752 116.546L104.29 116.256L104.823 115.96L56.259 28.544ZM66.119 28.544L17.5546 115.96L18.0884 116.256L18.6257 116.546L66.119 28.544ZM69.451 31.74L155.829 -18.6471L155.829 -18.6471L69.451 31.74ZM69.451 41.158L155.829 91.5451L156.009 91.2357L156.188 90.9249L69.451 41.158ZM66.119 44.388L113.612 132.39L114.15 132.1L114.683 131.804L66.119 44.388ZM63.705 41.124L10.7051 -43.6758L10.7051 -43.6758L63.705 41.124ZM65.405 39.254L154.334 84.9888L154.594 84.4835L154.848 83.9753L65.405 39.254ZM65.405 33.678L-24.0378 78.3994L-23.7837 78.9075L-23.5238 79.4128L65.405 33.678ZM63.705 31.774L116.705 -53.0258L116.705 -53.0259L63.705 31.774ZM58.673 31.774L5.6731 -53.0259L5.67305 -53.0258L58.673 31.774ZM56.973 33.678L145.902 79.4128L146.162 78.9075L146.416 78.3994L56.973 33.678ZM56.973 39.254L-32.4698 83.9753L-32.2157 84.4835L-31.9558 84.9888L56.973 39.254ZM58.673 41.124L111.673 -43.6758L111.673 -43.6758L58.673 41.124ZM61.189 -54.456C73.4769 -54.456 88.5868 -51.7987 103.752 -43.6142L8.7657 132.39C26.7871 142.116 45.1837 145.544 61.189 145.544V-54.456ZM104.823 -43.0277C118.48 -35.4407 130.699 -23.9821 139.305 -9.2291L-33.4509 91.5451C-23.2584 109.018 -8.81804 122.63 7.69466 131.804L104.823 -43.0277ZM139.664 -8.60894C148.371 6.56652 151.737 22.4519 151.737 36.466H-48.263C-48.263 53.9708 -44.1036 72.9841 -33.8097 90.9249L139.664 -8.60894ZM151.737 36.466C151.737 49.9052 148.603 66.1882 139.305 82.1271L-33.4509 -18.6471C-44.3353 0.0117675 -48.263 19.4454 -48.263 36.466H151.737ZM139.305 82.1271C130.546 97.1431 117.975 108.87 103.752 116.546L8.76568 -59.4582C-8.31349 -50.2409 -23.1049 -36.3831 -33.4509 -18.6471L139.305 82.1271ZM104.823 115.96C89.4496 124.501 73.9504 127.354 61.189 127.354V-72.646C44.7101 -72.646 25.9244 -68.9993 7.69464 -58.8717L104.823 115.96ZM61.189 127.354C48.4275 127.354 32.9284 124.501 17.5546 115.96L114.683 -58.8717C96.4536 -68.9993 77.6678 -72.646 61.189 -72.646V127.354ZM18.6257 116.546C4.40251 108.87 -8.1676 97.1431 -16.9269 82.1271L155.829 -18.6471C145.483 -36.3831 130.691 -50.2409 113.612 -59.4582L18.6257 116.546ZM-16.927 82.1271C-26.1126 66.3803 -29.359 50.1452 -29.359 36.432H170.641C170.641 19.1828 166.601 -0.180297 155.829 -18.6471L-16.927 82.1271ZM-29.359 36.432C-29.359 22.6887 -26.105 6.76185 -17.2857 -8.60891L156.188 90.9249C166.594 72.7888 170.641 53.7113 170.641 36.432H-29.359ZM-16.9269 -9.22913C-8.32102 -23.9821 3.89797 -35.4407 17.5547 -43.0277L114.683 131.804C131.196 122.63 145.636 109.018 155.829 91.5451L-16.9269 -9.22913ZM18.6257 -43.6142C33.7911 -51.7987 48.901 -54.456 61.189 -54.456V145.544C77.1942 145.544 95.5908 142.116 113.612 132.39L18.6257 -43.6142ZM61.189 141.804C78.6989 141.804 98.3308 137.408 116.705 125.924L10.7051 -43.6758C27.6285 -54.253 45.583 -58.196 61.189 -58.196V141.804ZM116.705 125.924C133.378 115.503 146.057 101.083 154.334 84.9888L-23.5238 -6.4808C-16.0628 -20.9883 -4.51771 -34.1616 10.7051 -43.6758L116.705 125.924ZM154.848 83.9753C163.131 67.4096 166.017 50.8052 166.017 36.466H-33.983C-33.983 24.2122 -31.5046 9.46641 -24.0378 -5.46732L154.848 83.9753ZM166.017 36.466C166.017 22.5605 163.302 5.38124 154.334 -12.0568L-23.5238 79.4128C-31.6759 63.5614 -33.983 48.2409 -33.983 36.466H166.017ZM154.848 -11.0434C146.781 -27.1758 134.082 -42.1653 116.705 -53.0258L10.705 116.574C-5.22106 106.62 -16.7875 92.8998 -24.0378 78.3994L154.848 -11.0434ZM116.705 -53.0259C98.3307 -64.5096 78.6989 -68.906 61.189 -68.906V131.094C45.583 131.094 27.6285 127.151 10.7051 116.574L116.705 -53.0259ZM61.189 -68.906C43.679 -68.906 24.0472 -64.5096 5.6731 -53.0259L111.673 116.574C94.7494 127.151 76.7949 131.094 61.189 131.094V-68.906ZM5.67305 -53.0258C-11.7037 -42.1653 -24.4035 -27.1758 -32.4698 -11.0434L146.416 78.3994C139.165 92.8998 127.599 106.62 111.673 116.574L5.67305 -53.0258ZM-31.9558 -12.0568C-40.9239 5.38121 -43.639 22.5605 -43.639 36.466H156.361C156.361 48.2409 154.054 63.5615 145.902 79.4128L-31.9558 -12.0568ZM-43.639 36.466C-43.639 50.8052 -40.7526 67.4096 -32.4698 83.9753L146.416 -5.46735C153.883 9.46638 156.361 24.2121 156.361 36.466H-43.639ZM-31.9558 84.9888C-23.6788 101.083 -11.0004 115.503 5.67307 125.924L111.673 -43.6758C126.896 -34.1616 138.441 -20.9883 145.902 -6.4808L-31.9558 84.9888ZM5.67306 125.924C24.0471 137.408 43.679 141.804 61.189 141.804V-58.196C76.7949 -58.196 94.7494 -54.253 111.673 -43.6758L5.67306 125.924ZM90.3522 45V145H190.352V45H90.3522ZM85.8982 45H-14.1018V145H85.8982V45ZM85.8982 41.736H185.898V39.9509L185.834 38.1669L85.8982 41.736ZM85.8642 40.784H-14.1358V42.5691L-14.0721 44.3531L85.8642 40.784ZM85.8642 27.898V-72.102H-14.1358V27.898H85.8642ZM90.3522 27.898H190.352V-72.102H90.3522V27.898ZM86.1022 37.86L141.572 -45.345L5.84654 -135.829L-13.2129 26.1758L86.1022 37.86ZM87.0202 38.472L186.968 35.2479L185.309 -16.1872L142.49 -44.733L87.0202 38.472ZM86.2382 42.178L-2.04905 -4.7833L-2.23607 -4.4317L-2.42028 -4.07863L86.2382 42.178ZM83.8922 44.66L134.765 130.753L135.054 130.582L135.342 130.409L83.8922 44.66ZM75.5622 43.776L4.18131 113.81L4.5148 114.15L4.85151 114.487L75.5622 43.776ZM73.7942 27.898V-72.102H-26.2058V27.898H73.7942ZM78.2822 27.898H178.282V-72.102H78.2822V27.898ZM79.1662 40.886L5.88685 108.931L7.1465 110.288L8.4555 111.597L79.1662 40.886ZM83.7222 41.328L128.444 130.771L129.703 130.141L130.944 129.476L83.7222 41.328ZM85.3202 39.934L166.059 98.9356L166.587 98.2141L167.101 97.4833L85.3202 39.934ZM90.3522 -55H85.8982V145H90.3522V-55ZM185.898 45V41.736H-14.1018V45H185.898ZM185.834 38.1669L185.8 37.2149L-14.0721 44.3531L-14.0381 45.3051L185.834 38.1669ZM185.864 40.784V27.898H-14.1358V40.784H185.864ZM85.8642 127.898H90.3522V-72.102H85.8642V127.898ZM-9.64781 27.898V45H190.352V27.898H-9.64781ZM30.6322 121.065L31.5502 121.677L142.49 -44.733L141.572 -45.345L30.6322 121.065ZM-12.9278 41.6961C-13.3518 28.5543 -10.954 11.9579 -2.04905 -4.7833L174.525 89.1393C184.564 70.2674 187.483 51.2003 186.968 35.2479L-12.9278 41.6961ZM-2.42028 -4.07863C5.66444 -19.5743 17.8481 -32.3326 32.4426 -41.0893L135.342 130.409C151.976 120.429 165.724 106.016 174.897 88.4346L-2.42028 -4.07863ZM33.0193 -41.4327C49.9285 -51.4244 66.9641 -54.456 80.3562 -54.456V145.544C96.4683 145.544 115.861 141.923 134.765 130.753L33.0193 -41.4327ZM80.3562 -54.456C98.9086 -54.456 124.871 -48.3363 146.273 -26.9347L4.85151 114.487C28.6105 138.246 57.7692 145.544 80.3562 145.544V-54.456ZM146.943 -26.2581C169.739 -3.02339 173.794 23.9723 173.794 38.574H-26.2058C-26.2058 57.7091 -20.9723 88.1727 4.18131 113.81L146.943 -26.2581ZM173.794 38.574V27.898H-26.2058V38.574H173.794ZM73.7942 127.898H78.2822V-72.102H73.7942V127.898ZM-21.7178 27.898V38.098H178.282V27.898H-21.7178ZM-21.7178 38.098C-21.7178 54.1305 -17.8582 83.3595 5.88685 108.931L152.446 -27.1591C175.012 -2.85688 178.282 24.5135 178.282 38.098H-21.7178ZM8.4555 111.597C31.5609 134.702 59.8875 141.804 81.6482 141.804V-58.196C101.324 -58.196 127.995 -51.7061 149.877 -29.8247L8.4555 111.597ZM81.6482 141.804C97.057 141.804 113.171 138.407 128.444 130.771L39.0009 -48.1147C53.0041 -55.1164 67.7354 -58.196 81.6482 -58.196V141.804ZM130.944 129.476C144.982 121.956 156.909 111.458 166.059 98.9356L4.58107 -19.0676C12.8703 -30.4108 23.7315 -39.9797 36.5 -46.82L130.944 129.476ZM167.101 97.4833C177.458 82.766 183.459 66.1899 185.417 49.5442L-13.2129 26.1758C-11.4359 11.0714 -5.95579 -4.12196 3.53953 -17.6153L167.101 97.4833ZM105.368 45V145H205.368V45H105.368ZM97.5825 43.844L25.8546 113.523L26.8644 114.562L27.9039 115.572L97.5825 43.844ZM96.4265 23.376V-76.624H-3.5735V23.376H96.4265ZM100.914 23.376H200.915V-76.624H100.914V23.376ZM101.323 40.92L27.8421 108.748L29.1982 110.217L30.6118 111.631L101.323 40.92ZM105.368 41.328H205.368V-58.672H105.368V41.328ZM105.164 31.502V131.502H205.165V31.502H105.164ZM93.4345 31.502H-6.5655V131.502H93.4345V31.502ZM93.4345 27.898V-72.102H-6.5655V27.898H93.4345ZM105.164 27.898H205.165V-72.102H105.164V27.898ZM105.368 -55H101.085V145H105.368V-55ZM101.085 -55C115.198 -55 143.085 -51.3697 167.261 -27.8839L27.9039 115.572C53.6671 140.599 83.8886 145 101.085 145V-55ZM169.31 -25.8346C192.796 -1.65806 196.426 26.2288 196.426 40.342H-3.5735C-3.5735 57.5379 0.827488 87.7594 25.8546 113.523L169.31 -25.8346ZM196.426 40.342V23.376H-3.5735V40.342H196.426ZM96.4265 123.376H100.914V-76.624H96.4265V123.376ZM0.914501 23.376V39.56H200.915V23.376H0.914501ZM0.914501 39.56C0.914501 52.4834 3.45693 82.3307 27.8421 108.748L174.803 -26.908C198.644 -1.08001 200.915 27.8606 200.915 39.56H0.914501ZM30.6118 111.631C57.5583 138.577 89.3299 141.328 102.615 141.328V-58.672C114.72 -58.672 145.631 -56.1931 172.033 -29.7907L30.6118 111.631ZM102.615 141.328H105.368V-58.672H102.615V141.328ZM5.3685 41.328V45H205.368V41.328H5.3685ZM105.164 -68.498H93.4345V131.502H105.164V-68.498ZM193.434 31.502V27.898H-6.5655V31.502H193.434ZM93.4345 127.898H105.164V-72.102H93.4345V127.898ZM5.1645 27.898V31.502H205.165V27.898H5.1645ZM136.214 20.69H236.214V-79.31H136.214V20.69ZM133.426 42.892L202.791 114.924L202.799 114.916L202.808 114.908L133.426 42.892ZM118.194 42.892L48.3731 114.481L48.8204 114.917L49.2731 115.348L118.194 42.892ZM115.44 20.69V-79.31H15.4405V20.69H115.44ZM120.03 20.69H220.03V-79.31H120.03V20.69ZM121.56 39.866L47.9075 107.507L48.2552 107.885L48.6068 108.26L121.56 39.866ZM130.094 39.866L57.1872 -28.5776L57.164 -28.5529L57.1407 -28.5281L130.094 39.866ZM131.658 20.69V-79.31H31.6585V20.69H131.658ZM36.2145 20.69V35.412H236.214V20.69H36.2145ZM36.2145 35.412C36.2145 18.3408 41.8715 -7.76109 64.0454 -29.1238L202.808 114.908C228.699 89.9638 236.214 58.8752 236.214 35.412H36.2145ZM64.0623 -29.14C85.5496 -49.8315 110.521 -54.456 125.81 -54.456V145.544C147.582 145.544 177.631 139.151 202.791 114.924L64.0623 -29.14ZM125.81 -54.456C141.407 -54.456 165.957 -49.6902 187.116 -29.5638L49.2731 115.348C74.1489 139.01 103.777 145.544 125.81 145.544V-54.456ZM188.016 -28.697C209.996 -7.25989 215.44 18.6968 215.44 35.412H15.4405C15.4405 58.5192 22.7213 89.4626 48.3731 114.481L188.016 -28.697ZM215.44 35.412V20.69H15.4405V35.412H215.44ZM115.44 120.69H120.03V-79.31H115.44V120.69ZM20.0305 20.69V35.412H220.03V20.69H20.0305ZM20.0305 35.412C20.0305 56.2186 26.2232 83.8947 47.9075 107.507L195.213 -27.7745C214.858 -6.38408 220.03 18.3228 220.03 35.412H20.0305ZM48.6068 108.26C72.5186 133.766 102.783 141.498 125.81 141.498V-58.502C145.212 -58.502 172.642 -51.8581 194.514 -28.5281L48.6068 108.26ZM125.81 141.498C148.436 141.498 178.899 134.019 203.048 108.26L57.1407 -28.5281C79.25 -52.1114 106.857 -58.502 125.81 -58.502V141.498ZM203.002 108.31C225.107 84.7628 231.658 56.7988 231.658 35.412H31.6585C31.6585 17.7425 37.1673 -7.25212 57.1872 -28.5776L203.002 108.31ZM231.658 35.412V20.69H31.6585V35.412H231.658ZM131.658 120.69H136.214V-79.31H131.658V120.69ZM139.18 42.45L64.0364 -23.5301L-0.021307 49.4245L71.0079 115.611L139.18 42.45ZM141.628 39.662L212.339 -31.0487L136.888 -106.5L66.4844 -26.3181L141.628 39.662ZM144.382 41.498L105.227 133.513L105.573 133.661L105.921 133.806L144.382 41.498ZM150.196 41.6L98.2987 -43.8788L97.6034 -43.4566L96.9151 -43.0233L150.196 41.6ZM150.298 38.88L102.67 126.809L104.821 127.974L107.025 129.032L150.298 38.88ZM147.238 38.132L132.844 137.091L133.286 137.155L133.727 137.215L147.238 38.132ZM141.764 36.398L84.0961 118.095L84.6357 118.476L85.1802 118.849L141.764 36.398ZM140.982 30.074L220.723 90.4183L221.109 89.9085L221.488 89.3939L140.982 30.074ZM143.634 28.068L182.358 120.266L182.358 120.266L143.634 28.068ZM151.964 28.17L113.159 120.334L113.444 120.453L113.729 120.572L151.964 28.17ZM155.33 30.312L230.474 96.2921L293.876 24.0844L224.252 -42.1438L155.33 30.312ZM152.882 33.1L81.0584 102.68L156.494 180.548L228.026 99.0801L152.882 33.1ZM150.434 31.366L107.529 121.694L107.958 121.897L108.388 122.097L150.434 31.366ZM145.164 31.264L92.7547 -53.9018L92.0027 -53.4391L91.2591 -52.9631L145.164 31.264ZM145.164 33.712L185.438 -57.8195L185.438 -57.8195L145.164 33.712ZM148.156 34.358L162.811 -64.5623L161.784 -64.7145L160.754 -64.8454L148.156 34.358ZM153.664 36.16L210.188 -46.3332L210.188 -46.3332L153.664 36.16ZM154.48 42.858L232.969 104.822L233.359 104.328L233.743 103.829L154.48 42.858ZM151.658 44.864L187.556 138.199L188.027 138.018L188.495 137.832L151.658 44.864ZM142.818 44.694L179.703 -48.2551V-48.2551L142.818 44.694ZM214.324 108.43L216.772 105.642L66.4844 -26.3181L64.0364 -23.5301L214.324 108.43ZM70.9178 110.373C81.2993 120.754 93.1189 128.361 105.227 133.513L183.538 -50.5175C193.515 -46.2718 203.499 -39.8889 212.339 -31.0487L70.9178 110.373ZM105.921 133.806C118.699 139.13 132.851 142.178 147.714 142.178V-57.822C160.312 -57.822 172.242 -55.2272 182.844 -50.8097L105.921 133.806ZM147.714 142.178C159.723 142.178 181.341 140.161 203.478 126.223L96.9151 -43.0233C117.828 -56.1908 137.792 -57.822 147.714 -57.822V142.178ZM202.094 127.079C222.079 114.945 251.148 86.4351 251.148 40.172H51.1484C51.1484 20.5127 57.0244 1.50544 67.7054 -14.5161C77.701 -29.5094 89.6887 -38.6513 98.2987 -43.8788L202.094 127.079ZM251.148 40.172C251.148 23.2198 246.835 3.22874 234.478 -15.5547C222.375 -33.9506 206.635 -45.0018 193.572 -51.2723L107.025 129.032C94.5283 123.034 79.2135 112.334 67.3942 94.3687C55.3201 76.0159 51.1484 56.5349 51.1484 40.172H251.148ZM197.927 -49.0492C179.597 -58.9776 161.832 -60.8034 160.75 -60.951L133.727 137.215C132.383 137.032 129.351 136.583 125.38 135.612C123.331 135.111 120.412 134.322 116.949 133.117C113.639 131.966 108.555 129.997 102.67 126.809L197.927 -49.0492ZM161.632 -60.8266C164.172 -60.4572 168.629 -59.6689 174.198 -57.9049C179.496 -56.2267 188.463 -52.8374 198.349 -46.0533L85.1802 118.849C105.353 132.694 125.443 136.014 132.844 137.091L161.632 -60.8266ZM199.433 -45.2988C210.388 -37.5655 221.427 -26.2535 229.361 -10.8512C237.279 4.51747 240.03 19.9282 240.03 33.032H40.0304C40.0304 66.5954 56.1047 98.3361 84.0961 118.095L199.433 -45.2988ZM240.03 33.032C240.03 51.8872 234.278 72.5062 220.723 90.4183L61.2418 -30.2703C46.4174 -10.6809 40.0304 11.9101 40.0304 33.032H240.03ZM221.488 89.3939C209.904 105.115 195.343 114.813 182.358 120.266L104.911 -64.1302C89.6597 -57.7246 73.3303 -46.6899 60.4768 -29.2459L221.488 89.3939ZM182.358 120.266C169.411 125.704 157.22 127.354 147.476 127.354V-72.646C134.877 -72.646 120.124 -70.5196 104.911 -64.1302L182.358 120.266ZM147.476 127.354C138.615 127.354 126.466 125.937 113.159 120.334L190.77 -63.9935C174.878 -70.6848 159.738 -72.646 147.476 -72.646V127.354ZM113.729 120.572C104.915 116.924 95.3173 111.242 86.4091 102.768L224.252 -42.1438C213.485 -52.3855 201.643 -59.4964 190.2 -64.2317L113.729 120.572ZM80.1864 -35.6681L77.7384 -32.8801L228.026 99.0801L230.474 96.2921L80.1864 -35.6681ZM224.706 -36.4795C215.337 -46.1513 204.388 -53.847 192.481 -59.3651L108.388 122.097C98.3397 117.44 89.0226 110.901 81.0584 102.68L224.706 -36.4795ZM193.34 -58.9618C178.502 -66.0097 162.804 -69.28 147.51 -69.28V130.72C134.302 130.72 120.553 127.88 107.529 121.694L193.34 -58.9618ZM147.51 -69.28C135.238 -69.28 114.284 -67.1508 92.7547 -53.9018L197.574 116.43C177.223 128.953 157.834 130.72 147.51 130.72V-69.28ZM91.2591 -52.9631C69.7667 -39.208 44.3144 -10.3427 44.3144 32.624H244.314C244.314 50.7455 239.301 68.9165 229.327 84.8759C219.853 100.034 208.137 109.688 199.07 115.491L91.2591 -52.9631ZM44.3144 32.624C44.3144 54.3485 51.3474 76.4147 65.7245 94.8174C78.9395 111.733 94.4877 120.666 104.891 125.243L185.438 -57.8195C195.275 -53.4916 210.398 -44.8639 223.329 -28.3114C237.423 -10.2713 244.314 11.3755 244.314 32.624H44.3144ZM104.891 125.243C119.967 131.877 133.837 133.343 135.559 133.561L160.754 -64.8454C161.838 -64.7077 164.249 -64.3766 167.442 -63.6871C169.09 -63.3313 171.399 -62.7833 174.15 -61.9661C176.792 -61.1812 180.761 -59.8777 185.438 -57.8195L104.891 125.243ZM133.502 133.278C130.614 132.851 125.964 131.985 120.275 130.123C114.726 128.308 106.317 124.94 97.1413 118.653L210.188 -46.3332C190.739 -59.659 171.498 -63.2755 162.811 -64.5623L133.502 133.278ZM97.1413 118.653C85.1719 110.452 73.7372 98.5476 65.7662 82.7533C57.9256 67.2173 55.5004 52.0283 55.5004 39.798H255.5C255.5 7.93251 240.781 -25.3708 210.188 -46.3332L97.1413 118.653ZM55.5004 39.798C55.5004 19.766 61.9324 -0.841688 75.218 -18.1131L233.743 103.829C248.389 84.7897 255.5 62.142 255.5 39.798H55.5004ZM75.9922 -19.1064C88.0221 -34.3444 102.579 -43.253 114.822 -48.1041L188.495 137.832C203.141 132.029 219.579 121.783 232.969 104.822L75.9922 -19.1064ZM115.761 -48.4706C128.556 -53.3919 139.847 -54.456 147.51 -54.456V145.544C158.347 145.544 172.404 144.027 187.556 138.199L115.761 -48.4706ZM147.51 -54.456C157.095 -54.456 168.203 -52.8187 179.703 -48.2551L105.934 137.643C120.29 143.34 134.526 145.544 147.51 145.544V-54.456ZM179.703 -48.2551C188.385 -44.81 198.161 -39.2765 207.353 -30.7108L71.0079 115.611C82.195 126.035 94.3963 133.065 105.934 137.643L179.703 -48.2551Z" fill="white" mask="url(#path-2-inside-1_192_494)"/>
</svg>
