<svg width="60" height="60" viewBox="0 0 60 60" fill="none" xmlns="http://www.w3.org/2000/svg">
<circle opacity="0.1" cx="30" cy="30" r="30" fill="#F1552D"/>
<g clip-path="url(#clip0_198_1014)">
<path d="M15 44.0356V15H29.9034V23.8039H38.778V29.1426C34.8765 29.0535 31.8143 30.5591 30.0759 34.1285C28.346 37.6811 29.0418 41.0047 31.5443 44.0356H15ZM19.4096 29.0385H32.6028V27.3555H19.4096V29.0385ZM28.1323 32.5769V30.8649H19.4265V32.5769H28.1323ZM19.4049 25.5206H26.378V23.833H19.4049V25.5206ZM26.4014 34.409H19.4115V36.0788H26.4014V34.409Z" fill="#F1552D"/>
<path d="M30.9253 37.9212C30.9356 34.0451 34.0973 30.9118 37.9874 30.9212C41.8673 30.9306 45.0064 34.0863 45.0008 37.9719C44.9952 41.8696 41.8176 45.0207 37.9134 44.9991C34.0401 44.9784 30.9159 41.8133 30.9262 37.9203L30.9253 37.9212ZM37.3442 40.4709C38.5913 39.3565 39.9105 38.1783 41.241 36.9888C40.8256 36.5272 40.4543 36.1145 40.0708 35.6886C39.1285 36.5263 38.2228 37.3302 37.2842 38.1642C36.821 37.7008 36.3935 37.273 35.9303 36.8087C35.559 37.2177 35.184 37.6314 34.7667 38.0901C35.5843 38.8452 36.4413 39.637 37.3433 40.4709H37.3442Z" fill="#F1552D"/>
<path d="M38.0568 22.0554H31.7017V15.6848C33.7991 17.7871 35.9266 19.9193 38.0568 22.0554Z" fill="#F1552D"/>
</g>
<defs>
<clipPath id="clip0_198_1014">
<rect width="30" height="30" fill="white" transform="translate(15 15)"/>
</clipPath>
</defs>
</svg>
