<svg width="64" height="64" viewBox="0 0 64 64" fill="none" xmlns="http://www.w3.org/2000/svg">
<circle cx="32" cy="32" r="32" fill="#0F3D5F"/>
<g clip-path="url(#clip0_192_666)">
<path d="M42.4343 21.4286C42.4323 20.7511 42.0302 20.1085 41.417 20.0532C40.5194 19.9734 39.6097 20.0328 38.6695 20.0328V20.5117C38.6675 22.0938 38.6655 23.6758 38.6695 25.2599C38.6695 25.6263 38.5863 25.9394 38.2309 26.0991C37.8817 26.2567 37.6217 26.0745 37.3659 25.8473C36.6836 25.2456 35.9911 24.6582 35.2946 24.0586C35.1647 24.1629 35.0672 24.2387 34.9718 24.3205C34.3443 24.8629 33.7351 25.4298 33.0792 25.9333C32.8924 26.0766 32.5228 26.1502 32.3299 26.0581C32.1309 25.966 32.0233 25.6386 31.9177 25.3971C31.8669 25.2784 31.9075 25.1187 31.9075 24.9775V20.0143C30.9938 20.0143 30.1247 19.9734 29.2637 20.0287C28.6281 20.0717 28.1631 20.6795 28.1367 21.3631C28.1245 21.7151 28.161 22.0712 28.1265 22.4212C28.092 22.7855 28.222 22.9493 28.555 23.1089C30.4353 24.0074 31.4669 25.5322 31.475 27.6259C31.4852 29.7974 30.413 31.3385 28.4677 32.2677C28.3377 32.3312 28.1651 32.4601 28.1468 32.5809C27.9823 33.6349 28.62 34.3819 29.6718 34.3819C33.4163 34.384 37.1588 34.384 40.9032 34.3819C41.8901 34.3819 42.4323 33.8293 42.4323 32.8306C42.4323 30.8658 42.4323 28.903 42.4323 26.9382C42.4323 25.1024 42.4343 23.2644 42.4323 21.4286H42.4343ZM35.1789 32.4069C35.0916 32.4949 34.9697 32.5502 34.8377 32.5502H33.8671C33.6011 32.5502 33.3858 32.3312 33.3858 32.0631C33.3858 31.93 33.4386 31.8072 33.526 31.7192C33.6133 31.6312 33.7351 31.578 33.8671 31.578H34.8377C35.1038 31.578 35.319 31.7949 35.319 32.0631C35.319 32.1961 35.2662 32.3189 35.1789 32.4069ZM37.1933 32.411C37.106 32.499 36.9841 32.5522 36.8521 32.5522H36.0582C35.7921 32.5522 35.5769 32.3353 35.5769 32.0672C35.5769 31.9341 35.6317 31.8113 35.717 31.7233C35.8043 31.6353 35.9241 31.5821 36.0582 31.5821H36.8521C37.1181 31.5821 37.3354 31.799 37.3354 32.0672C37.3354 32.2002 37.2806 32.323 37.1933 32.411ZM40.0849 32.4847C39.3843 32.4929 38.6838 32.4929 37.9832 32.4847C37.7111 32.4806 37.5182 32.3537 37.5283 32.0487C37.5405 31.7438 37.7395 31.6435 38.0116 31.6435C38.3629 31.6455 38.7122 31.6455 39.0635 31.6455C39.4148 31.6455 39.7356 31.6455 40.0727 31.6435C40.3387 31.6414 40.5154 31.7745 40.5296 32.0365C40.5438 32.323 40.3651 32.4806 40.0849 32.4847Z" fill="white"/>
<path d="M24.971 42.9431C24.575 41.4531 24.1892 40 23.8034 38.5448C23.7465 38.3279 23.6896 38.1089 23.6348 37.8899C23.4439 37.1449 23.4744 37.1838 24.0491 36.7192C25.2877 35.7163 26.5528 35.4728 28.1063 36.0458C29.7937 36.668 31.5766 37.0282 33.3189 37.501C33.9504 37.6729 34.2956 38.1805 34.1656 38.7536C34.0357 39.3348 33.4712 39.6541 32.8153 39.4822C31.5299 39.1465 30.2486 38.7925 28.9652 38.4445C28.6667 38.3627 28.4088 38.422 28.3317 38.7474C28.2646 39.0319 28.4657 39.1813 28.7195 39.257C28.7337 39.2611 28.7459 39.2652 28.7601 39.2693C30.015 39.6132 31.2679 39.9591 32.5249 40.2968C33.1645 40.4687 33.7372 40.3377 34.3342 40.0205C36.9598 38.6267 39.6057 37.2738 42.2536 35.9189C42.8831 35.5956 43.5614 35.8125 43.8599 36.3733C44.1706 36.9607 43.9594 37.6259 43.3238 37.9922C40.5032 39.6173 37.6807 41.2362 34.8601 42.8612C34.5555 43.0352 34.2448 43.2092 33.9727 43.4261C33.2783 43.9787 32.5026 43.9992 31.6964 43.8129C30.673 43.5776 29.6577 43.3115 28.6383 43.072C27.4341 42.7875 26.2239 42.5624 24.973 42.9451L24.971 42.9431Z" fill="white"/>
<path d="M30.6568 27.6831C30.6486 29.9611 28.7825 31.8276 26.5224 31.8194C24.2704 31.8112 22.4043 29.9222 22.4043 27.6524C22.4043 25.3438 24.2826 23.4956 26.6158 23.51C28.8455 23.5223 30.6649 25.4031 30.6568 27.6831ZM25.9559 28.3114C25.702 28.0085 25.5051 27.7077 25.2411 27.4907C25.1253 27.3945 24.8309 27.3925 24.6948 27.4764C24.4776 27.6115 24.4857 27.8694 24.6684 28.0618C25.0258 28.4383 25.3792 28.8231 25.7772 29.1547C25.8868 29.2468 26.228 29.2406 26.3193 29.1424C27.0423 28.3585 27.7408 27.5501 28.4109 26.7212C28.4921 26.6209 28.4393 26.275 28.3317 26.187C28.2261 26.099 27.9662 26.1706 27.7855 26.2198C27.6941 26.2443 27.6332 26.3773 27.5601 26.4633C27.0565 27.0446 26.5529 27.6238 25.9538 28.3135L25.9559 28.3114Z" fill="white"/>
<path d="M32.7706 20.0143H37.8025V25.1064C37.108 24.5067 36.4745 23.9623 35.8429 23.4158C35.3068 22.9533 35.2622 22.9533 34.72 23.4261C34.1047 23.9602 33.4874 24.4924 32.8681 25.0245C32.8518 25.0388 32.8173 25.0286 32.7686 25.0327V20.0143H32.7706Z" fill="white"/>
<path d="M21.8277 36.3753C22.2886 36.361 22.4186 36.5923 22.4978 36.887C23.0257 38.8866 23.5557 40.8862 24.0857 42.8858C24.1751 43.2255 24.2685 43.5653 24.3538 43.905C24.4431 44.2693 24.3111 44.5108 23.9476 44.6132C23.5313 44.7298 23.1151 44.8506 22.6968 44.959C22.2277 45.0798 22.0226 44.9509 21.8845 44.431C21.3951 42.6095 20.9118 40.7879 20.4265 38.9664C20.3067 38.5182 20.1849 38.07 20.063 37.6218C19.9148 37.0773 20.0265 36.8665 20.5585 36.7151C21.0154 36.5861 21.4743 36.4695 21.8317 36.3733L21.8277 36.3753ZM22.1363 37.9513C22.1262 37.5788 21.8256 37.2943 21.454 37.3045C21.0783 37.3148 20.8002 37.6095 20.8103 37.9881C20.8205 38.3626 21.1149 38.643 21.4885 38.6328C21.8561 38.6246 22.1444 38.3217 22.1343 37.9513H22.1363Z" fill="white"/>
</g>
<defs>
<clipPath id="clip0_192_666">
<rect width="24" height="25" fill="white" transform="translate(20 20)"/>
</clipPath>
</defs>
</svg>
