<svg width="60" height="60" viewBox="0 0 60 60" fill="none" xmlns="http://www.w3.org/2000/svg">
<circle opacity="0.1" cx="30" cy="30" r="30" fill="#A0549F"/>
<g clip-path="url(#clip0_198_1025)">
<path d="M17.9956 26.993C17.9996 20.3434 23.392 14.986 30.0648 15C36.6326 15.014 42.007 20.4023 42.005 26.972C42.003 33.6337 36.6246 39.001 29.9608 38.99C23.363 38.979 17.9916 33.5927 17.9956 26.992V26.993ZM25.3636 31.5438C25.3236 32.4693 26.0638 32.9551 26.796 32.5892C27.7482 32.1145 28.6885 31.6147 29.6197 31.099C29.9038 30.9421 30.1198 30.957 30.3959 31.11C31.3262 31.6267 32.2714 32.1165 33.2097 32.6192C33.5838 32.8191 33.9489 32.8101 34.29 32.5592C34.628 32.3104 34.7611 31.9595 34.6911 31.5488C34.509 30.4843 34.299 29.4248 34.1449 28.3564C34.1139 28.1385 34.2139 27.8306 34.366 27.6697C35.0652 26.9331 35.7974 26.2294 36.5295 25.5258C36.8916 25.1779 37.1237 24.8041 36.9307 24.2884C36.7386 23.7736 36.2985 23.6567 35.8164 23.5927C34.8431 23.4648 33.8688 23.3409 32.9026 23.1709C32.6995 23.135 32.4565 22.9461 32.3594 22.7611C31.8713 21.8356 31.4202 20.8891 30.9661 19.9466C30.77 19.5408 30.4879 19.2649 30.0148 19.2579C29.5167 19.2509 29.2266 19.5398 29.0235 19.9625C28.5844 20.8771 28.1213 21.7796 27.6982 22.7002C27.5462 23.032 27.3291 23.1639 26.983 23.2069C25.9927 23.3279 25.0045 23.4678 24.0162 23.6127C23.5641 23.6787 23.185 23.8696 23.043 24.3504C22.9089 24.8031 23.081 25.155 23.4121 25.4638C24.1052 26.1125 24.7624 26.8011 25.4836 27.4168C25.9137 27.7836 25.9727 28.1614 25.8657 28.6772C25.6607 29.6697 25.5126 30.6732 25.3626 31.5438H25.3636Z" fill="#A0549F"/>
<path d="M34.5933 40.2044C37.5861 39.1179 39.9567 37.2599 41.7472 34.5852C42.4034 35.7206 43.0266 36.7981 43.6497 37.8756C44.0408 38.5522 44.4449 39.2229 44.822 39.9075C45.2722 40.7241 44.83 41.4758 43.8948 41.4878C42.9285 41.4997 41.9603 41.5087 40.994 41.4818C40.6429 41.4718 40.4609 41.5977 40.2978 41.8945C39.8507 42.7111 39.3766 43.5147 38.9045 44.3173C38.3703 45.2249 37.4981 45.2199 36.9649 44.3063C36.1777 42.956 35.3985 41.6007 34.5913 40.2064L34.5933 40.2044Z" fill="#A0549F"/>
<path d="M18.2517 34.5882C20.0402 37.2469 22.3978 39.1139 25.4116 40.2004C24.5574 41.6727 23.7492 43.1179 22.8869 44.5312C22.4848 45.1909 21.6106 45.1439 21.1965 44.4693C20.6583 43.5917 20.1442 42.6981 19.6411 41.7996C19.508 41.5617 19.361 41.4808 19.0939 41.4847C18.1117 41.5007 17.1294 41.4967 16.1481 41.4887C15.1529 41.4807 14.7088 40.7261 15.2029 39.8626C16.2002 38.1194 17.2124 36.3843 18.2517 34.5892V34.5882Z" fill="#A0549F"/>
<path d="M26.0938 25.3349C26.8259 25.2279 27.4481 25.13 28.0723 25.048C28.5604 24.984 28.8905 24.7431 29.0976 24.2884C29.3586 23.7157 29.6587 23.1599 29.9998 22.4833C30.2899 23.058 30.5759 23.5348 30.776 24.0465C31.0481 24.7421 31.5402 25.038 32.2584 25.091C32.7535 25.128 33.2437 25.2369 33.8548 25.3319C33.5147 25.6687 33.2607 25.9975 32.9376 26.2274C32.0113 26.8841 31.8533 27.7376 32.1584 28.7661C32.2564 29.095 32.2654 29.4508 32.3304 29.8986C31.7303 29.5897 31.1961 29.3418 30.691 29.047C30.1938 28.7571 29.7387 28.7501 29.2396 29.045C28.7275 29.3478 28.1843 29.5997 27.5891 29.9076C27.7072 29.1749 27.8052 28.5083 27.9242 27.8456C28.0023 27.4098 27.8672 27.07 27.5531 26.7711C27.085 26.3264 26.6319 25.8656 26.0947 25.3359L26.0938 25.3349Z" fill="#A0549F"/>
</g>
<defs>
<clipPath id="clip0_198_1025">
<rect width="30" height="30" fill="white" transform="translate(15 15)"/>
</clipPath>
</defs>
</svg>
