<svg width="60" height="60" viewBox="0 0 60 60" fill="none" xmlns="http://www.w3.org/2000/svg">
<circle opacity="0.1" cx="30" cy="30" r="30" fill="#0F3D5F"/>
<g clip-path="url(#clip0_198_1009)">
<path d="M29.9661 41.9972C28.0317 41.9972 26.0973 41.9982 24.1629 41.9972C23.3202 41.9972 23.0262 41.7185 23.0271 40.9043C23.029 38.023 23.0037 35.1408 23.0505 32.2594C23.0842 30.1546 24.9447 28.3505 27.0888 28.3091C29.0223 28.2714 30.9576 28.2714 32.8911 28.3091C35.0342 28.3514 36.8956 30.1555 36.9293 32.2604C36.9752 35.1877 36.9527 38.115 36.9499 41.0432C36.9499 41.6955 36.611 41.9954 35.9097 41.9972C33.9285 42.0009 31.9473 41.9982 29.9661 41.9991V41.9972Z" fill="#0F3D5F"/>
<path d="M29.9947 27.2282C27.123 27.2346 24.7514 24.8887 24.7786 22.069C24.8057 19.3082 27.1436 17.0202 29.9591 17C32.7998 16.9798 35.2239 19.3395 35.1996 22.1021C35.1752 24.9402 32.8579 27.2217 29.9947 27.2282Z" fill="#0F3D5F"/>
<path d="M21.6508 30.5023C21.1929 31.7083 21.294 32.9071 21.2903 34.0975C21.2847 35.9503 21.2893 37.804 21.2893 39.6568C21.2893 40.4195 21.2893 41.1812 21.2893 41.9981C20.662 41.9981 19.9645 42.0037 19.2679 41.9963C18.5984 41.9889 17.9224 42.023 17.2623 41.9411C16.0414 41.7911 15.1032 40.9319 15.0592 39.7415C14.988 37.8325 14.959 35.9098 15.1135 34.0092C15.2699 32.0901 17.1659 30.5455 19.133 30.505C19.942 30.4885 20.751 30.5023 21.6517 30.5023H21.6508Z" fill="#0F3D5F"/>
<path d="M38.3525 30.4821C39.6661 30.5833 40.9414 30.2898 42.1595 30.7746C43.8682 31.4545 44.8485 32.7102 44.9459 34.5051C45.0358 36.1545 44.9937 37.8123 44.9609 39.4655C44.9347 40.8004 44.0265 41.8362 42.6726 41.9384C41.329 42.0386 39.9714 41.9604 38.6886 41.9604C38.6886 40.0359 38.7214 38.1242 38.6793 36.2143C38.6371 34.3257 38.9218 32.4186 38.3516 30.4821H38.3525Z" fill="#0F3D5F"/>
<path d="M20.8398 29.4149C18.6928 29.4131 16.9597 27.6928 16.9653 25.5695C16.971 23.4931 18.7293 21.771 20.8444 21.7673C22.9801 21.7645 24.7516 23.5023 24.7479 25.5962C24.7432 27.6964 22.9839 29.4159 20.8398 29.414V29.4149Z" fill="#0F3D5F"/>
<path d="M39.0974 29.4149C36.9663 29.4075 35.223 27.6688 35.2295 25.5566C35.2361 23.4738 37.0272 21.7534 39.1732 21.7682C41.2995 21.7829 43.0261 23.5308 43.012 25.6559C42.998 27.7314 41.2368 29.4223 39.0974 29.4149Z" fill="#0F3D5F"/>
</g>
<defs>
<clipPath id="clip0_198_1009">
<rect width="30" height="25" fill="white" transform="translate(15 17)"/>
</clipPath>
</defs>
</svg>
