<svg width="230" height="70" viewBox="0 0 230 70" fill="none" xmlns="http://www.w3.org/2000/svg">
<circle opacity="0.05" cx="35" cy="35" r="35" fill="#0F3D5F"/>
<mask id="path-2-inside-1_192_361" fill="white">
<path d="M34.6428 47L27.6641 22.2727H32.4815L36.9368 40.4439H37.1662L41.9233 22.2727H46.3061L51.0753 40.456H51.2926L55.7479 22.2727H60.5653L53.5866 47H49.1676L44.2173 29.6499H44.0241L39.0618 47H34.6428ZM67.8489 36.1335V47H63.4782V22.2727H67.7523V31.6058H67.9696C68.4043 30.5594 69.0764 29.7344 69.986 29.1307C70.9036 28.5189 72.0707 28.2131 73.4874 28.2131C74.7753 28.2131 75.8981 28.4827 76.856 29.022C77.8139 29.5613 78.5544 30.3501 79.0776 31.3885C79.6088 32.4268 79.8745 33.6946 79.8745 35.1918V47H75.5037V35.8679C75.5037 34.6203 75.1818 33.6503 74.5378 32.9581C73.9019 32.2578 73.0085 31.9077 71.8574 31.9077C71.0847 31.9077 70.3925 32.0767 69.7807 32.4148C69.177 32.7448 68.7021 33.2237 68.356 33.8516C68.0179 34.4794 67.8489 35.2401 67.8489 36.1335ZM89.6664 47.3743C88.4912 47.3743 87.4327 47.165 86.4909 46.7464C85.5572 46.3198 84.8167 45.692 84.2694 44.8629C83.7301 44.0339 83.4604 43.0116 83.4604 41.7962C83.4604 40.7498 83.6536 39.8845 84.04 39.2003C84.4263 38.5161 84.9535 37.9688 85.6216 37.5582C86.2897 37.1477 87.0423 36.8378 87.8794 36.6286C88.7246 36.4112 89.598 36.2543 90.4995 36.1577C91.5861 36.045 92.4675 35.9444 93.1436 35.8558C93.8198 35.7592 94.3108 35.6143 94.6167 35.4212C94.9306 35.2199 95.0875 34.91 95.0875 34.4915V34.419C95.0875 33.5095 94.8179 32.8052 94.2786 32.3061C93.7393 31.8071 92.9625 31.5575 91.9483 31.5575C90.8778 31.5575 90.0286 31.791 89.4007 32.2578C88.781 32.7247 88.3624 33.276 88.1451 33.9119L84.0641 33.3324C84.3861 32.2055 84.9173 31.2637 85.6578 30.5071C86.3984 29.7424 87.3039 29.1709 88.3745 28.7926C89.445 28.4062 90.6283 28.2131 91.9242 28.2131C92.8176 28.2131 93.7071 28.3177 94.5925 28.527C95.4779 28.7363 96.2869 29.0824 97.0194 29.5653C97.7518 30.0402 98.3394 30.6882 98.7821 31.5092C99.2329 32.3303 99.4583 33.3565 99.4583 34.5881V47H95.2566V44.4524H95.1117C94.8461 44.9676 94.4718 45.4505 93.9888 45.9013C93.5139 46.344 92.9142 46.7022 92.1898 46.9759C91.4734 47.2415 90.6323 47.3743 89.6664 47.3743ZM90.8013 44.1626C91.6787 44.1626 92.4393 43.9896 93.0833 43.6435C93.7272 43.2893 94.2222 42.8224 94.5684 42.2429C94.9225 41.6634 95.0996 41.0315 95.0996 40.3473V38.1619C94.9628 38.2746 94.7293 38.3793 94.3993 38.4759C94.0774 38.5724 93.7151 38.657 93.3127 38.7294C92.9102 38.8018 92.5118 38.8662 92.1174 38.9226C91.723 38.9789 91.3809 39.0272 91.0911 39.0675C90.4391 39.156 89.8555 39.3009 89.3404 39.5021C88.8252 39.7034 88.4187 39.9851 88.1209 40.3473C87.8231 40.7015 87.6742 41.1603 87.6742 41.7237C87.6742 42.5286 87.968 43.1364 88.5556 43.5469C89.1432 43.9574 89.8918 44.1626 90.8013 44.1626ZM113.114 28.4545V31.8352H102.453V28.4545H113.114ZM105.085 24.0114H109.455V41.4219C109.455 42.0095 109.544 42.4602 109.721 42.7741C109.906 43.08 110.148 43.2893 110.445 43.402C110.743 43.5147 111.073 43.571 111.436 43.571C111.709 43.571 111.959 43.5509 112.184 43.5107C112.418 43.4704 112.595 43.4342 112.715 43.402L113.452 46.8189C113.218 46.8994 112.884 46.9879 112.45 47.0845C112.023 47.1811 111.5 47.2375 110.88 47.2536C109.785 47.2857 108.799 47.1207 107.922 46.7585C107.045 46.3883 106.348 45.8168 105.833 45.044C105.326 44.2713 105.077 43.3054 105.085 42.1463V24.0114ZM130.6 47L123.621 22.2727H128.439L132.894 40.4439H133.123L137.88 22.2727H142.263L147.032 40.456H147.25L151.705 22.2727H156.522L149.544 47H145.125L140.174 29.6499H139.981L135.019 47H130.6ZM165.753 47.3622C163.893 47.3622 162.288 46.9759 160.935 46.2031C159.591 45.4223 158.557 44.3196 157.832 42.8949C157.108 41.4621 156.746 39.7758 156.746 37.8359C156.746 35.9283 157.108 34.254 157.832 32.8132C158.565 31.3643 159.587 30.2375 160.899 29.4325C162.211 28.6196 163.753 28.2131 165.523 28.2131C166.666 28.2131 167.745 28.3982 168.759 28.7685C169.781 29.1307 170.683 29.6941 171.464 30.4588C172.253 31.2235 172.872 32.1974 173.323 33.3807C173.774 34.5559 173.999 35.9564 173.999 37.5824V38.9226H158.798V35.9766H169.81C169.802 35.1394 169.621 34.3949 169.266 33.7429C168.912 33.0829 168.417 32.5637 167.781 32.1854C167.153 31.8071 166.421 31.6179 165.584 31.6179C164.69 31.6179 163.906 31.8352 163.229 32.2699C162.553 32.6965 162.026 33.2599 161.648 33.9602C161.277 34.6525 161.088 35.4131 161.08 36.2422V38.8139C161.08 39.8925 161.277 40.8182 161.672 41.5909C162.066 42.3556 162.618 42.9432 163.326 43.3537C164.034 43.7562 164.863 43.9574 165.813 43.9574C166.449 43.9574 167.025 43.8688 167.54 43.6918C168.055 43.5066 168.502 43.237 168.88 42.8828C169.258 42.5286 169.544 42.09 169.737 41.5668L173.818 42.0256C173.561 43.1042 173.07 44.0459 172.345 44.8509C171.629 45.6477 170.711 46.2675 169.592 46.7102C168.473 47.1449 167.194 47.3622 165.753 47.3622ZM194.703 47H186.324V22.2727H194.872C197.327 22.2727 199.436 22.7678 201.199 23.7578C202.97 24.7398 204.33 26.1525 205.28 27.9957C206.229 29.839 206.704 32.0445 206.704 34.6122C206.704 37.188 206.225 39.4015 205.268 41.2528C204.318 43.1042 202.945 44.5249 201.15 45.5149C199.363 46.505 197.214 47 194.703 47ZM190.803 43.1243H194.486C196.208 43.1243 197.645 42.8104 198.796 42.1825C199.947 41.5466 200.812 40.6009 201.392 39.3452C201.971 38.0814 202.261 36.5038 202.261 34.6122C202.261 32.7206 201.971 31.151 201.392 29.9034C200.812 28.6477 199.955 27.71 198.82 27.0902C197.693 26.4624 196.293 26.1484 194.618 26.1484H190.803V43.1243ZM218.857 47.3622C217.046 47.3622 215.476 46.9638 214.148 46.1669C212.82 45.37 211.789 44.2552 211.057 42.8224C210.333 41.3897 209.97 39.7154 209.97 37.7997C209.97 35.884 210.333 34.2057 211.057 32.7649C211.789 31.3241 212.82 30.2053 214.148 29.4084C215.476 28.6115 217.046 28.2131 218.857 28.2131C220.668 28.2131 222.237 28.6115 223.566 29.4084C224.894 30.2053 225.92 31.3241 226.644 32.7649C227.377 34.2057 227.743 35.884 227.743 37.7997C227.743 39.7154 227.377 41.3897 226.644 42.8224C225.92 44.2552 224.894 45.37 223.566 46.1669C222.237 46.9638 220.668 47.3622 218.857 47.3622ZM218.881 43.8608C219.863 43.8608 220.684 43.5911 221.344 43.0518C222.004 42.5045 222.495 41.772 222.817 40.8544C223.147 39.9368 223.312 38.9145 223.312 37.7876C223.312 36.6527 223.147 35.6264 222.817 34.7088C222.495 33.7831 222.004 33.0466 221.344 32.4993C220.684 31.9519 219.863 31.6783 218.881 31.6783C217.875 31.6783 217.038 31.9519 216.369 32.4993C215.709 33.0466 215.214 33.7831 214.884 34.7088C214.562 35.6264 214.401 36.6527 214.401 37.7876C214.401 38.9145 214.562 39.9368 214.884 40.8544C215.214 41.772 215.709 42.5045 216.369 43.0518C217.038 43.5911 217.875 43.8608 218.881 43.8608Z"/>
</mask>
<path d="M34.6428 47L27.6641 22.2727H32.4815L36.9368 40.4439H37.1662L41.9233 22.2727H46.3061L51.0753 40.456H51.2926L55.7479 22.2727H60.5653L53.5866 47H49.1676L44.2173 29.6499H44.0241L39.0618 47H34.6428ZM67.8489 36.1335V47H63.4782V22.2727H67.7523V31.6058H67.9696C68.4043 30.5594 69.0764 29.7344 69.986 29.1307C70.9036 28.5189 72.0707 28.2131 73.4874 28.2131C74.7753 28.2131 75.8981 28.4827 76.856 29.022C77.8139 29.5613 78.5544 30.3501 79.0776 31.3885C79.6088 32.4268 79.8745 33.6946 79.8745 35.1918V47H75.5037V35.8679C75.5037 34.6203 75.1818 33.6503 74.5378 32.9581C73.9019 32.2578 73.0085 31.9077 71.8574 31.9077C71.0847 31.9077 70.3925 32.0767 69.7807 32.4148C69.177 32.7448 68.7021 33.2237 68.356 33.8516C68.0179 34.4794 67.8489 35.2401 67.8489 36.1335ZM89.6664 47.3743C88.4912 47.3743 87.4327 47.165 86.4909 46.7464C85.5572 46.3198 84.8167 45.692 84.2694 44.8629C83.7301 44.0339 83.4604 43.0116 83.4604 41.7962C83.4604 40.7498 83.6536 39.8845 84.04 39.2003C84.4263 38.5161 84.9535 37.9688 85.6216 37.5582C86.2897 37.1477 87.0423 36.8378 87.8794 36.6286C88.7246 36.4112 89.598 36.2543 90.4995 36.1577C91.5861 36.045 92.4675 35.9444 93.1436 35.8558C93.8198 35.7592 94.3108 35.6143 94.6167 35.4212C94.9306 35.2199 95.0875 34.91 95.0875 34.4915V34.419C95.0875 33.5095 94.8179 32.8052 94.2786 32.3061C93.7393 31.8071 92.9625 31.5575 91.9483 31.5575C90.8778 31.5575 90.0286 31.791 89.4007 32.2578C88.781 32.7247 88.3624 33.276 88.1451 33.9119L84.0641 33.3324C84.3861 32.2055 84.9173 31.2637 85.6578 30.5071C86.3984 29.7424 87.3039 29.1709 88.3745 28.7926C89.445 28.4062 90.6283 28.2131 91.9242 28.2131C92.8176 28.2131 93.7071 28.3177 94.5925 28.527C95.4779 28.7363 96.2869 29.0824 97.0194 29.5653C97.7518 30.0402 98.3394 30.6882 98.7821 31.5092C99.2329 32.3303 99.4583 33.3565 99.4583 34.5881V47H95.2566V44.4524H95.1117C94.8461 44.9676 94.4718 45.4505 93.9888 45.9013C93.5139 46.344 92.9142 46.7022 92.1898 46.9759C91.4734 47.2415 90.6323 47.3743 89.6664 47.3743ZM90.8013 44.1626C91.6787 44.1626 92.4393 43.9896 93.0833 43.6435C93.7272 43.2893 94.2222 42.8224 94.5684 42.2429C94.9225 41.6634 95.0996 41.0315 95.0996 40.3473V38.1619C94.9628 38.2746 94.7293 38.3793 94.3993 38.4759C94.0774 38.5724 93.7151 38.657 93.3127 38.7294C92.9102 38.8018 92.5118 38.8662 92.1174 38.9226C91.723 38.9789 91.3809 39.0272 91.0911 39.0675C90.4391 39.156 89.8555 39.3009 89.3404 39.5021C88.8252 39.7034 88.4187 39.9851 88.1209 40.3473C87.8231 40.7015 87.6742 41.1603 87.6742 41.7237C87.6742 42.5286 87.968 43.1364 88.5556 43.5469C89.1432 43.9574 89.8918 44.1626 90.8013 44.1626ZM113.114 28.4545V31.8352H102.453V28.4545H113.114ZM105.085 24.0114H109.455V41.4219C109.455 42.0095 109.544 42.4602 109.721 42.7741C109.906 43.08 110.148 43.2893 110.445 43.402C110.743 43.5147 111.073 43.571 111.436 43.571C111.709 43.571 111.959 43.5509 112.184 43.5107C112.418 43.4704 112.595 43.4342 112.715 43.402L113.452 46.8189C113.218 46.8994 112.884 46.9879 112.45 47.0845C112.023 47.1811 111.5 47.2375 110.88 47.2536C109.785 47.2857 108.799 47.1207 107.922 46.7585C107.045 46.3883 106.348 45.8168 105.833 45.044C105.326 44.2713 105.077 43.3054 105.085 42.1463V24.0114ZM130.6 47L123.621 22.2727H128.439L132.894 40.4439H133.123L137.88 22.2727H142.263L147.032 40.456H147.25L151.705 22.2727H156.522L149.544 47H145.125L140.174 29.6499H139.981L135.019 47H130.6ZM165.753 47.3622C163.893 47.3622 162.288 46.9759 160.935 46.2031C159.591 45.4223 158.557 44.3196 157.832 42.8949C157.108 41.4621 156.746 39.7758 156.746 37.8359C156.746 35.9283 157.108 34.254 157.832 32.8132C158.565 31.3643 159.587 30.2375 160.899 29.4325C162.211 28.6196 163.753 28.2131 165.523 28.2131C166.666 28.2131 167.745 28.3982 168.759 28.7685C169.781 29.1307 170.683 29.6941 171.464 30.4588C172.253 31.2235 172.872 32.1974 173.323 33.3807C173.774 34.5559 173.999 35.9564 173.999 37.5824V38.9226H158.798V35.9766H169.81C169.802 35.1394 169.621 34.3949 169.266 33.7429C168.912 33.0829 168.417 32.5637 167.781 32.1854C167.153 31.8071 166.421 31.6179 165.584 31.6179C164.69 31.6179 163.906 31.8352 163.229 32.2699C162.553 32.6965 162.026 33.2599 161.648 33.9602C161.277 34.6525 161.088 35.4131 161.08 36.2422V38.8139C161.08 39.8925 161.277 40.8182 161.672 41.5909C162.066 42.3556 162.618 42.9432 163.326 43.3537C164.034 43.7562 164.863 43.9574 165.813 43.9574C166.449 43.9574 167.025 43.8688 167.54 43.6918C168.055 43.5066 168.502 43.237 168.88 42.8828C169.258 42.5286 169.544 42.09 169.737 41.5668L173.818 42.0256C173.561 43.1042 173.07 44.0459 172.345 44.8509C171.629 45.6477 170.711 46.2675 169.592 46.7102C168.473 47.1449 167.194 47.3622 165.753 47.3622ZM194.703 47H186.324V22.2727H194.872C197.327 22.2727 199.436 22.7678 201.199 23.7578C202.97 24.7398 204.33 26.1525 205.28 27.9957C206.229 29.839 206.704 32.0445 206.704 34.6122C206.704 37.188 206.225 39.4015 205.268 41.2528C204.318 43.1042 202.945 44.5249 201.15 45.5149C199.363 46.505 197.214 47 194.703 47ZM190.803 43.1243H194.486C196.208 43.1243 197.645 42.8104 198.796 42.1825C199.947 41.5466 200.812 40.6009 201.392 39.3452C201.971 38.0814 202.261 36.5038 202.261 34.6122C202.261 32.7206 201.971 31.151 201.392 29.9034C200.812 28.6477 199.955 27.71 198.82 27.0902C197.693 26.4624 196.293 26.1484 194.618 26.1484H190.803V43.1243ZM218.857 47.3622C217.046 47.3622 215.476 46.9638 214.148 46.1669C212.82 45.37 211.789 44.2552 211.057 42.8224C210.333 41.3897 209.97 39.7154 209.97 37.7997C209.97 35.884 210.333 34.2057 211.057 32.7649C211.789 31.3241 212.82 30.2053 214.148 29.4084C215.476 28.6115 217.046 28.2131 218.857 28.2131C220.668 28.2131 222.237 28.6115 223.566 29.4084C224.894 30.2053 225.92 31.3241 226.644 32.7649C227.377 34.2057 227.743 35.884 227.743 37.7997C227.743 39.7154 227.377 41.3897 226.644 42.8224C225.92 44.2552 224.894 45.37 223.566 46.1669C222.237 46.9638 220.668 47.3622 218.857 47.3622ZM218.881 43.8608C219.863 43.8608 220.684 43.5911 221.344 43.0518C222.004 42.5045 222.495 41.772 222.817 40.8544C223.147 39.9368 223.312 38.9145 223.312 37.7876C223.312 36.6527 223.147 35.6264 222.817 34.7088C222.495 33.7831 222.004 33.0466 221.344 32.4993C220.684 31.9519 219.863 31.6783 218.881 31.6783C217.875 31.6783 217.038 31.9519 216.369 32.4993C215.709 33.0466 215.214 33.7831 214.884 34.7088C214.562 35.6264 214.401 36.6527 214.401 37.7876C214.401 38.9145 214.562 39.9368 214.884 40.8544C215.214 41.772 215.709 42.5045 216.369 43.0518C217.038 43.5911 217.875 43.8608 218.881 43.8608Z" fill="#0F3D5F"/>
<path d="M34.6428 47L-61.5978 74.1616L-41.0409 147H34.6428V47ZM27.6641 22.2727V-77.7273H-104.465L-68.5765 49.4344L27.6641 22.2727ZM32.4815 22.2727L129.605 -1.54024L110.925 -77.7273H32.4815V22.2727ZM36.9368 40.4439L-60.1865 64.2569L-41.5068 140.444H36.9368V40.4439ZM37.1662 40.4439V140.444H114.357L133.906 65.7698L37.1662 40.4439ZM41.9233 22.2727V-77.7273H-35.2673L-54.8166 -3.05319L41.9233 22.2727ZM46.3061 22.2727L143.034 -3.09756L123.46 -77.7273H46.3061V22.2727ZM51.0753 40.456L-45.6529 65.8262L-26.0787 140.456H51.0753V40.456ZM51.2926 40.456V140.456H129.749L148.42 64.254L51.2926 40.456ZM55.7479 22.2727V-77.7273H-22.7081L-41.3791 -1.52532L55.7479 22.2727ZM60.5653 22.2727L156.806 49.4344L192.694 -77.7273H60.5653V22.2727ZM53.5866 47V147H129.27L149.827 74.1616L53.5866 47ZM49.1676 47L-46.9949 74.4368L-26.2914 147H49.1676V47ZM44.2173 29.6499L140.38 2.21309L119.676 -70.3501H44.2173V29.6499ZM44.0241 29.6499V-70.3501H-31.3844L-52.1207 2.15123L44.0241 29.6499ZM39.0618 47V147H114.47L135.207 74.4986L39.0618 47ZM130.883 19.8384L123.905 -4.88892L-68.5765 49.4344L-61.5978 74.1616L130.883 19.8384ZM27.6641 122.273H32.4815V-77.7273H27.6641V122.273ZM-64.6418 46.0857L-60.1865 64.2569L134.06 16.6309L129.605 -1.54024L-64.6418 46.0857ZM36.9368 140.444H37.1662V-59.5561H36.9368V140.444ZM133.906 65.7698L138.663 47.5986L-54.8166 -3.05319L-59.5737 15.118L133.906 65.7698ZM41.9233 122.273H46.3061V-77.7273H41.9233V122.273ZM-50.4221 47.643L-45.6529 65.8262L147.804 15.0857L143.034 -3.09756L-50.4221 47.643ZM51.0753 140.456H51.2926V-59.544H51.0753V140.456ZM148.42 64.254L152.875 46.0708L-41.3791 -1.52532L-45.8344 16.6579L148.42 64.254ZM55.7479 122.273H60.5653V-77.7273H55.7479V122.273ZM-35.6752 -4.88892L-42.6539 19.8384L149.827 74.1616L156.806 49.4344L-35.6752 -4.88892ZM53.5866 -53H49.1676V147H53.5866V-53ZM145.33 19.5632L140.38 2.21309L-51.9452 57.0866L-46.9949 74.4368L145.33 19.5632ZM44.2173 -70.3501H44.0241V129.65H44.2173V-70.3501ZM-52.1207 2.15123L-57.083 19.5014L135.207 74.4986L140.169 57.1485L-52.1207 2.15123ZM39.0618 -53H34.6428V147H39.0618V-53ZM67.8489 47V147H167.849V47H67.8489ZM63.4782 47H-36.5218V147H63.4782V47ZM63.4782 22.2727V-77.7273H-36.5218V22.2727H63.4782ZM67.7523 22.2727H167.752V-77.7273H67.7523V22.2727ZM67.7523 31.6058H-32.2477V131.606H67.7523V31.6058ZM67.9696 31.6058V131.606H134.715L160.319 69.9664L67.9696 31.6058ZM69.986 29.1307L125.286 112.449L125.371 112.392L125.456 112.336L69.986 29.1307ZM76.856 29.022L125.917 -58.116L125.917 -58.116L76.856 29.022ZM79.0776 31.3885L-10.2262 76.3866L-10.0876 76.6618L-9.94722 76.9361L79.0776 31.3885ZM79.8745 47V147H179.874V47H79.8745ZM75.5037 47H-24.4963V147H75.5037V47ZM74.5378 32.9581L0.505358 100.183L0.909588 100.628L1.31914 101.068L74.5378 32.9581ZM69.7807 32.4148L117.748 120.16L117.949 120.05L118.149 119.939L69.7807 32.4148ZM68.356 33.8516L-19.2181 -14.4265L-19.4568 -13.9936L-19.6911 -13.5584L68.356 33.8516ZM-32.1511 36.1335V47H167.849V36.1335H-32.1511ZM67.8489 -53H63.4782V147H67.8489V-53ZM163.478 47V22.2727H-36.5218V47H163.478ZM63.4782 122.273H67.7523V-77.7273H63.4782V122.273ZM-32.2477 22.2727V31.6058H167.752V22.2727H-32.2477ZM67.7523 131.606H67.9696V-68.3942H67.7523V131.606ZM160.319 69.9664C153.445 86.5146 141.566 101.643 125.286 112.449L14.6863 -54.1876C-3.41355 -42.1745 -16.6369 -25.3958 -24.38 -6.75479L160.319 69.9664ZM125.456 112.336C105.85 125.406 86.2361 128.213 73.4874 128.213V-71.7869C57.9054 -71.7869 35.9568 -68.3683 14.516 -54.0743L125.456 112.336ZM73.4874 128.213C60.5558 128.213 44.2034 125.398 27.7952 116.16L125.917 -58.116C107.593 -68.4328 88.9947 -71.7869 73.4874 -71.7869V128.213ZM27.7951 116.16C10.4295 106.383 -2.3592 91.9996 -10.2262 76.3866L168.381 -13.6096C159.468 -31.2993 145.198 -47.2601 125.917 -58.116L27.7951 116.16ZM-9.94722 76.9361C-18.3821 60.4497 -20.1255 45.1748 -20.1255 35.1918H179.874C179.874 22.2144 177.6 4.40401 168.102 -14.1591L-9.94722 76.9361ZM-20.1255 35.1918V47H179.874V35.1918H-20.1255ZM79.8745 -53H75.5037V147H79.8745V-53ZM175.504 47V35.8679H-24.4963V47H175.504ZM175.504 35.8679C175.504 17.6334 170.529 -10.6716 147.757 -35.1523L1.31914 101.068C-20.1657 77.9723 -24.4963 51.6072 -24.4963 35.8679H175.504ZM148.57 -34.2669C124.947 -60.2824 94.5856 -68.0923 71.8574 -68.0923V131.908C51.4313 131.908 22.8569 124.798 0.505358 100.183L148.57 -34.2669ZM71.8574 -68.0923C55.9912 -68.0923 38.3511 -64.4704 21.4121 -55.1094L118.149 119.939C102.434 128.624 86.1781 131.908 71.8574 131.908V-68.0923ZM21.8136 -55.33C3.80071 -45.483 -10.0969 -30.972 -19.2181 -14.4265L155.93 82.1296C147.501 97.4195 134.553 110.973 117.748 120.16L21.8136 -55.33ZM-19.6911 -13.5584C-29.6163 4.87398 -32.1511 22.8007 -32.1511 36.1335H167.849C167.849 47.6794 165.652 64.0848 156.403 81.2616L-19.6911 -13.5584ZM86.4909 46.7464L44.9335 137.702L45.4042 137.917L45.8771 138.128L86.4909 46.7464ZM84.2694 44.8629L0.443592 99.3904L0.628761 99.675L0.815861 99.9584L84.2694 44.8629ZM84.04 39.2003L-3.03539 -9.97171L-3.03542 -9.97166L84.04 39.2003ZM85.6216 37.5582L33.2692 -47.6428L33.2691 -47.6428L85.6216 37.5582ZM87.8794 36.6286L112.133 133.643L112.459 133.561L112.784 133.478L87.8794 36.6286ZM90.4995 36.1577L80.1844 -63.3089L80.0152 -63.2914L79.8461 -63.2732L90.4995 36.1577ZM93.1436 35.8558L106.128 135.009L106.707 134.933L107.286 134.851L93.1436 35.8558ZM94.6167 35.4212L148.016 119.97L148.3 119.79L148.583 119.609L94.6167 35.4212ZM94.2786 32.3061L162.198 -41.0902L162.198 -41.0902L94.2786 32.3061ZM89.4007 32.2578L29.7305 -47.9884L29.4821 -47.8038L29.235 -47.6176L89.4007 32.2578ZM88.1451 33.9119L74.0849 132.919L156.01 144.553L182.771 66.2525L88.1451 33.9119ZM84.0641 33.3324L-12.0883 5.86026L-43.615 116.204L70.004 132.339L84.0641 33.3324ZM85.6578 30.5071L157.125 100.453L157.31 100.264L157.494 100.074L85.6578 30.5071ZM88.3745 28.7926L121.694 123.079L122.008 122.967L122.321 122.854L88.3745 28.7926ZM97.0194 29.5653L41.9735 113.052L42.2948 113.263L42.6178 113.473L97.0194 29.5653ZM98.7821 31.5092L10.7628 78.9707L10.9423 79.3036L11.1243 79.6351L98.7821 31.5092ZM99.4583 47V147H199.458V47H99.4583ZM95.2566 47H-4.74343V147H95.2566V47ZM95.2566 44.4524H195.257V-55.5476H95.2566V44.4524ZM95.1117 44.4524V-55.5476H34.1633L6.23137 -1.3765L95.1117 44.4524ZM93.9888 45.9013L162.176 119.048L162.199 119.027L162.221 119.007L93.9888 45.9013ZM92.1898 46.9759L126.956 140.738L127.243 140.631L127.53 140.523L92.1898 46.9759ZM93.0833 43.6435L140.428 131.726L140.852 131.498L141.275 131.265L93.0833 43.6435ZM94.5684 42.2429L9.24018 -9.90212L8.97488 -9.46799L8.71401 -9.03118L94.5684 42.2429ZM95.0996 38.1619H195.1V-173.737L31.5287 -39.0309L95.0996 38.1619ZM94.3993 38.4759L66.3096 -57.4979L65.9867 -57.4034L65.6644 -57.3067L94.3993 38.4759ZM93.3127 38.7294L111.028 137.148L111.028 137.148L93.3127 38.7294ZM91.0911 39.0675L104.548 138.158L104.698 138.138L104.848 138.117L91.0911 39.0675ZM89.3404 39.5021L52.9553 -53.6436L52.9553 -53.6436L89.3404 39.5021ZM88.1209 40.3473L164.657 104.707L165.013 104.285L165.363 103.858L88.1209 40.3473ZM88.5556 43.5469L31.2847 125.523L31.2847 125.523L88.5556 43.5469ZM89.6664 -52.6257C100.525 -52.6257 113.585 -50.6436 127.105 -44.6347L45.8771 138.128C61.2806 144.974 76.4576 147.374 89.6664 147.374V-52.6257ZM128.048 -44.2095C143.567 -37.119 157.586 -25.5873 167.723 -10.2326L0.815861 99.9584C12.0476 116.971 27.5472 129.759 44.9335 137.702L128.048 -44.2095ZM168.095 -9.66451C180.302 9.10107 183.46 28.1054 183.46 41.7962H-16.5396C-16.5396 57.9178 -12.8417 78.9666 0.443592 99.3904L168.095 -9.66451ZM183.46 41.7962C183.46 52.462 181.555 69.886 171.115 88.3722L-3.03542 -9.97166C-14.2474 9.88293 -16.5396 29.0375 -16.5396 41.7962H183.46ZM171.115 88.3723C163.186 102.414 151.778 114.278 137.974 122.759L33.2691 -47.6428C18.1295 -38.3401 5.66706 -25.3823 -3.03539 -9.97171L171.115 88.3723ZM137.974 122.759C129.107 128.208 120.223 131.62 112.133 133.643L63.6258 -60.3857C53.8619 -57.9447 43.4722 -53.9121 33.2692 -47.6428L137.974 122.759ZM112.784 133.478C108.769 134.51 104.871 135.19 101.153 135.589L79.8461 -63.2732C74.3244 -62.6816 68.6801 -61.6877 62.9754 -60.2207L112.784 133.478ZM100.815 135.624C102.332 135.467 104.2 135.262 106.128 135.009L80.1593 -63.2976C80.2519 -63.3098 80.3302 -63.3197 80.3925 -63.3276C80.4551 -63.3355 80.5052 -63.3416 80.5419 -63.3461C80.5788 -63.3506 80.6048 -63.3537 80.6193 -63.3554C80.6338 -63.3571 80.6388 -63.3576 80.6336 -63.357C80.6285 -63.3565 80.6149 -63.3549 80.5922 -63.3524C80.5696 -63.3499 80.5392 -63.3465 80.5006 -63.3423C80.4621 -63.3382 80.4165 -63.3333 80.3635 -63.3277C80.3104 -63.322 80.2508 -63.3158 80.1844 -63.3089L100.815 135.624ZM107.286 134.851C111.702 134.22 129.386 131.736 148.016 119.97L41.2172 -49.1277C51.352 -55.5286 60.4632 -58.6864 65.7173 -60.2368C71.3489 -61.8985 76.0262 -62.7141 79.0016 -63.1391L107.286 134.851ZM148.583 119.609C181.501 98.5079 195.088 64.0507 195.088 34.4915H-4.91246C-4.91246 22.184 -2.56568 6.29153 5.76002 -10.1464C14.3322 -27.071 26.9331 -39.9738 40.65 -48.7668L148.583 119.609ZM195.088 34.4915V34.419H-4.91246V34.4915H195.088ZM195.088 34.419C195.088 12.755 187.883 -17.3211 162.198 -41.0902L26.3596 105.702C1.7523 82.9314 -4.91246 54.264 -4.91246 34.419H195.088ZM162.198 -41.0902C137.135 -64.2822 108.487 -68.4425 91.9483 -68.4425V131.558C77.4383 131.558 50.3433 127.896 26.3597 105.702L162.198 -41.0902ZM91.9483 -68.4425C77.1637 -68.4425 52.9526 -65.2562 29.7305 -47.9884L149.071 112.504C127.105 128.838 104.592 131.558 91.9483 131.558V-68.4425ZM29.235 -47.6176C15.1745 -37.0266 1.16664 -20.805 -6.48098 1.57138L182.771 66.2525C175.558 87.3571 162.387 102.476 149.567 112.133L29.235 -47.6176ZM102.205 -65.0947L98.1242 -65.6742L70.004 132.339L74.0849 132.919L102.205 -65.0947ZM180.216 60.8045C176.468 73.9232 169.223 88.0922 157.125 100.453L14.191 -39.4392C0.61171 -25.5647 -7.69615 -9.51222 -12.0883 5.86026L180.216 60.8045ZM157.494 100.074C146.768 111.15 134.205 118.657 121.694 123.079L55.0554 -65.4933C40.4025 -60.3153 26.0287 -51.665 13.822 -39.0602L157.494 100.074ZM122.321 122.854C111.108 126.901 100.618 128.213 91.9242 128.213V-71.7869C80.6388 -71.7869 67.7817 -70.0886 54.4274 -65.2691L122.321 122.854ZM91.9242 128.213C84.931 128.213 78.1037 127.385 71.59 125.845L117.595 -68.7915C109.311 -70.7496 100.704 -71.7869 91.9242 -71.7869V128.213ZM71.59 125.845C61.4939 123.459 51.3892 119.26 41.9735 113.052L152.065 -53.9209C141.185 -61.0949 129.462 -65.9866 117.595 -68.7915L71.59 125.845ZM42.6178 113.473C28.2998 104.19 17.7259 91.884 10.7628 78.9707L186.802 -15.9522C178.953 -30.5076 167.204 -44.1092 151.421 -54.3421L42.6178 113.473ZM11.1243 79.6351C1.32558 61.7875 -0.541725 45.0564 -0.541725 34.5881H199.458C199.458 21.6566 197.14 2.87303 186.44 -16.6167L11.1243 79.6351ZM-0.541725 34.5881V47H199.458V34.5881H-0.541725ZM99.4583 -53H95.2566V147H99.4583V-53ZM195.257 47V44.4524H-4.74343V47H195.257ZM95.2566 -55.5476H95.1117V144.452H95.2566V-55.5476ZM6.23137 -1.3765C11.9111 -12.3917 19.0001 -20.8978 25.757 -27.2042L162.221 119.007C169.943 111.799 177.781 102.327 183.992 90.2813L6.23137 -1.3765ZM25.8012 -27.2455C36.49 -37.2096 47.7007 -43.115 56.8497 -46.5714L127.53 140.523C138.128 136.519 150.538 129.898 162.176 119.048L25.8012 -27.2455ZM57.4241 -46.7863C70.3379 -51.5746 81.7663 -52.6257 89.6664 -52.6257V147.374C99.4982 147.374 112.609 146.058 126.956 140.738L57.4241 -46.7863ZM90.8013 144.163C104.912 144.163 122.583 141.317 140.428 131.726L45.739 -44.439C62.2956 -53.3382 78.4454 -55.8374 90.8013 -55.8374V144.163ZM141.275 131.265C156.054 123.137 170.174 110.678 180.423 93.517L8.71401 -9.03118C18.2707 -25.0331 31.4002 -36.558 44.8914 -43.9781L141.275 131.265ZM179.897 94.3879C189.92 77.9861 195.1 59.2891 195.1 40.3473H-4.90039C-4.90039 22.7739 -0.0748291 5.34063 9.24018 -9.90212L179.897 94.3879ZM195.1 40.3473V38.1619H-4.90039V40.3473H195.1ZM31.5287 -39.0309C40.6577 -46.549 49.1507 -50.7897 53.9164 -52.926C59.0947 -55.2474 63.4839 -56.6709 66.3096 -57.4979L122.489 134.45C125.893 133.453 142.327 128.814 158.671 115.355L31.5287 -39.0309ZM65.6644 -57.3067C69.6373 -58.4986 73.0439 -59.2293 75.5973 -59.6889L111.028 137.148C114.386 136.543 118.517 135.643 123.134 134.258L65.6644 -57.3067ZM75.5974 -59.6889C76.3513 -59.8246 77.1443 -59.9537 77.9752 -60.0724L106.26 137.918C107.879 137.686 109.469 137.428 111.028 137.148L75.5974 -59.6889ZM77.9752 -60.0724C77.6669 -60.0283 77.4592 -59.9991 77.3343 -59.9818L104.848 138.117C105.302 138.054 105.779 137.986 106.26 137.918L77.9752 -60.0724ZM77.6344 -60.023C70.5654 -59.063 62.0871 -57.2107 52.9553 -53.6436L125.725 132.648C117.624 135.812 110.313 137.375 104.548 138.158L77.6344 -60.023ZM52.9553 -53.6436C39.3793 -48.3405 23.8384 -38.9254 10.8784 -23.1632L165.363 103.858C152.999 118.896 138.271 127.747 125.725 132.648L52.9553 -53.6436ZM11.5847 -24.0127C-6.97328 -1.94373 -12.3258 22.9365 -12.3258 41.7237H187.674C187.674 59.384 182.619 83.3467 164.657 104.707L11.5847 -24.0127ZM-12.3258 41.7237C-12.3258 70.524 0.308929 103.882 31.2847 125.523L145.826 -38.429C158.665 -29.4597 170.16 -16.8047 177.926 -0.741722C185.484 14.8928 187.674 29.9223 187.674 41.7237H-12.3258ZM31.2847 125.523C52.6843 140.473 74.9254 144.163 90.8013 144.163V-55.8374C104.858 -55.8374 125.602 -52.5584 145.826 -38.4291L31.2847 125.523ZM113.114 28.4545H213.114V-71.5455H113.114V28.4545ZM113.114 31.8352V131.835H213.114V31.8352H113.114ZM102.453 31.8352H2.45259V131.835H102.453V31.8352ZM102.453 28.4545V-71.5455H2.45259V28.4545H102.453ZM105.085 24.0114V-75.9886H5.08469V24.0114H105.085ZM109.455 24.0114H209.455V-75.9886H109.455V24.0114ZM109.721 42.7741L22.6232 91.9063L23.3768 93.2422L24.171 94.5544L109.721 42.7741ZM110.445 43.402L75.0563 136.931L75.0563 136.931L110.445 43.402ZM112.184 43.5107L95.1934 -55.0354L94.8991 -54.9846L94.605 -54.9321L112.184 43.5107ZM112.715 43.402L210.47 22.3311L188.356 -80.2633L86.9492 -53.2215L112.715 43.402ZM113.452 46.8189L146.051 141.356L229.894 112.445L211.207 25.748L113.452 46.8189ZM112.45 47.0845L90.7567 -50.5342L90.5619 -50.4909L90.3672 -50.4468L112.45 47.0845ZM110.88 47.2536L108.284 -52.7127L108.112 -52.7083L107.94 -52.7032L110.88 47.2536ZM107.922 46.7585L69.0408 138.89L69.4007 139.042L69.7618 139.191L107.922 46.7585ZM105.833 45.044L22.2285 99.9097L22.4273 100.213L22.6282 100.514L105.833 45.044ZM105.085 42.1463L205.082 42.8407L205.085 42.4935V42.1463H105.085ZM13.1138 28.4545V31.8352H213.114V28.4545H13.1138ZM113.114 -68.1648H102.453V131.835H113.114V-68.1648ZM202.453 31.8352V28.4545H2.45259V31.8352H202.453ZM102.453 128.455H113.114V-71.5455H102.453V128.455ZM105.085 124.011H109.455V-75.9886H105.085V124.011ZM9.45543 24.0114V41.4219H209.455V24.0114H9.45543ZM9.45543 41.4219C9.45543 49.5305 10.2436 69.9605 22.6232 91.9063L196.819 -6.35798C203.189 4.9352 206.17 15.4076 207.647 22.9261C209.138 30.52 209.455 36.939 209.455 41.4219H9.45543ZM24.171 94.5544C34.4368 111.515 51.282 127.935 75.0563 136.931L145.835 -50.1266C169.013 -41.3563 185.376 -25.3551 195.271 -9.00612L24.171 94.5544ZM75.0563 136.931C88.1056 141.868 100.628 143.571 111.436 143.571V-56.429C121.518 -56.429 133.381 -54.8388 145.835 -50.1266L75.0563 136.931ZM111.436 143.571C116.501 143.571 122.743 143.207 129.763 141.953L94.605 -54.9321C101.175 -56.1052 106.917 -56.429 111.436 -56.429V143.571ZM129.175 142.057C130.249 141.871 133.95 141.234 138.482 140.026L86.9492 -53.2215C89.4131 -53.8786 91.3852 -54.2999 92.4524 -54.5182C93.6312 -54.7593 94.5833 -54.9302 95.1934 -55.0354L129.175 142.057ZM14.9605 64.4728L15.697 67.8897L211.207 25.748L210.47 22.3311L14.9605 64.4728ZM80.8529 -47.7184C83.7381 -48.7133 86.07 -49.3625 87.405 -49.7164C88.8486 -50.099 90.011 -50.3685 90.7567 -50.5342L134.143 144.703C135.844 144.325 140.484 143.276 146.051 141.356L80.8529 -47.7184ZM90.3672 -50.4468C98.3741 -52.2597 104.822 -52.6228 108.284 -52.7127L113.477 147.22C118.177 147.098 125.672 146.622 134.532 144.616L90.3672 -50.4468ZM107.94 -52.7032C118.77 -53.0217 132.089 -51.4513 146.082 -45.6741L69.7618 139.191C85.5101 145.693 100.801 147.593 113.82 147.21L107.94 -52.7032ZM146.803 -45.3732C163.486 -38.3327 178.399 -26.3846 189.038 -10.426L22.6282 100.514C34.2976 118.018 50.6033 131.109 69.0408 138.89L146.803 -45.3732ZM189.438 -9.8216C202.216 9.64967 205.176 29.2849 205.082 42.8407L5.08711 41.4519C4.97687 57.3259 8.43625 78.8929 22.2285 99.9097L189.438 -9.8216ZM205.085 42.1463V24.0114H5.08469V42.1463H205.085ZM130.6 47L34.3592 74.1616L54.9161 147H130.6V47ZM123.621 22.2727V-77.7273H-8.50786L27.3805 49.4344L123.621 22.2727ZM128.439 22.2727L225.562 -1.54024L206.882 -77.7273H128.439V22.2727ZM132.894 40.4439L35.7705 64.2569L54.4502 140.444H132.894V40.4439ZM133.123 40.4439V140.444H210.314L229.863 65.7698L133.123 40.4439ZM137.88 22.2727V-77.7273H60.6897L41.1405 -3.05319L137.88 22.2727ZM142.263 22.2727L238.991 -3.09756L219.417 -77.7273H142.263V22.2727ZM147.032 40.456L50.3041 65.8262L69.8783 140.456H147.032V40.456ZM147.25 40.456V140.456H225.706L244.377 64.254L147.25 40.456ZM151.705 22.2727V-77.7273H73.2489L54.5779 -1.52532L151.705 22.2727ZM156.522 22.2727L252.763 49.4344L288.651 -77.7273H156.522V22.2727ZM149.544 47V147H225.227L245.784 74.1616L149.544 47ZM145.125 47L48.9622 74.4368L69.6657 147H145.125V47ZM140.174 29.6499L236.337 2.21309L215.633 -70.3501H140.174V29.6499ZM139.981 29.6499V-70.3501H64.5727L43.8364 2.15123L139.981 29.6499ZM135.019 47V147H210.427L231.164 74.4986L135.019 47ZM226.84 19.8384L219.862 -4.88892L27.3805 49.4344L34.3592 74.1616L226.84 19.8384ZM123.621 122.273H128.439V-77.7273H123.621V122.273ZM31.3152 46.0857L35.7705 64.2569L230.017 16.6309L225.562 -1.54024L31.3152 46.0857ZM132.894 140.444H133.123V-59.5561H132.894V140.444ZM229.863 65.7698L234.62 47.5986L41.1405 -3.05319L36.3834 15.118L229.863 65.7698ZM137.88 122.273H142.263V-77.7273H137.88V122.273ZM45.5349 47.643L50.3041 65.8262L243.761 15.0857L238.991 -3.09756L45.5349 47.643ZM147.032 140.456H147.25V-59.544H147.032V140.456ZM244.377 64.254L248.832 46.0708L54.5779 -1.52532L50.1227 16.6579L244.377 64.254ZM151.705 122.273H156.522V-77.7273H151.705V122.273ZM60.2818 -4.88892L53.3031 19.8384L245.784 74.1616L252.763 49.4344L60.2818 -4.88892ZM149.544 -53H145.125V147H149.544V-53ZM241.287 19.5632L236.337 2.21309L44.0119 57.0866L48.9622 74.4368L241.287 19.5632ZM140.174 -70.3501H139.981V129.65H140.174V-70.3501ZM43.8364 2.15123L38.874 19.5014L231.164 74.4986L236.126 57.1485L43.8364 2.15123ZM135.019 -53H130.6V147H135.019V-53ZM160.935 46.2031L110.709 132.675L111.015 132.852L111.321 133.027L160.935 46.2031ZM157.832 42.8949L68.5911 88.0169L68.6424 88.1183L68.6939 88.2196L157.832 42.8949ZM157.832 32.8132L68.5889 -12.3043L68.5392 -12.2061L68.4897 -12.1077L157.832 32.8132ZM160.899 29.4325L213.192 114.67L213.382 114.554L213.57 114.437L160.899 29.4325ZM168.759 28.7685L134.465 122.704L134.912 122.867L135.361 123.026L168.759 28.7685ZM171.464 30.4588L101.493 101.902L101.677 102.082L101.861 102.26L171.464 30.4588ZM173.323 33.3807L79.8744 68.9802L79.9149 69.0866L79.9557 69.1929L173.323 33.3807ZM173.999 38.9226V138.923H273.999V38.9226H173.999ZM158.798 38.9226H58.7983V138.923H158.798V38.9226ZM158.798 35.9766V-64.0234H58.7983V35.9766H158.798ZM169.81 35.9766V135.977H270.776L269.805 35.0151L169.81 35.9766ZM169.266 33.7429L81.1503 81.0247L81.2716 81.2507L81.394 81.476L169.266 33.7429ZM167.781 32.1854L116.17 117.838L116.411 117.983L116.652 118.126L167.781 32.1854ZM163.229 32.2699L216.591 116.843L216.949 116.617L217.305 116.388L163.229 32.2699ZM161.648 33.9602L73.6657 -13.5703L73.5671 -13.3879L73.4693 -13.205L161.648 33.9602ZM161.08 36.2422L61.085 35.2714L61.0803 35.7568V36.2422H161.08ZM161.672 41.5909L72.6033 87.0529L72.7 87.2424L72.7975 87.4314L161.672 41.5909ZM163.326 43.3537L113.184 129.874L113.553 130.088L113.925 130.299L163.326 43.3537ZM167.54 43.6918L200.048 138.26L200.705 138.034L201.36 137.799L167.54 43.6918ZM168.88 42.8828L100.538 -30.1193L168.88 42.8828ZM169.737 41.5668L180.909 -57.8072L103.062 -66.5593L75.9276 6.92928L169.737 41.5668ZM173.818 42.0256L271.083 65.253L297.345 -44.7168L184.99 -57.3484L173.818 42.0256ZM172.345 44.8509L98.0157 -22.0456L97.9971 -22.0249L97.9785 -22.0042L172.345 44.8509ZM169.592 46.7102L205.805 139.923L206.095 139.81L206.385 139.696L169.592 46.7102ZM165.753 -52.6378C177.917 -52.6378 194.106 -50.0172 210.549 -40.6212L111.321 133.027C130.469 143.969 149.87 147.362 165.753 147.362V-52.6378ZM211.161 -40.2685C226.971 -31.0854 239.221 -17.6721 246.971 -2.42978L68.6939 88.2196C77.893 106.311 92.2108 121.93 110.709 132.675L211.161 -40.2685ZM247.074 -2.22711C254.747 12.95 256.746 27.3267 256.746 37.8359H56.7457C56.7457 52.2249 59.4684 69.9742 68.5911 88.0169L247.074 -2.22711ZM256.746 37.8359C256.746 48.6904 254.631 62.906 247.175 77.7341L68.4897 -12.1077C59.5854 5.60201 56.7457 23.1662 56.7457 37.8359H256.746ZM247.076 77.9308C239.925 92.0746 228.557 105.244 213.192 114.67L108.606 -55.805C90.6177 -44.7692 77.2043 -29.3459 68.5889 -12.3043L247.076 77.9308ZM213.57 114.437C196.841 124.803 179.563 128.213 165.523 128.213V-71.7869C147.942 -71.7869 127.582 -67.564 108.228 -55.5718L213.57 114.437ZM165.523 128.213C155.66 128.213 145.071 126.576 134.465 122.704L203.053 -65.1673C190.419 -69.7798 177.673 -71.7869 165.523 -71.7869V128.213ZM135.361 123.026C122.57 118.494 111.017 111.23 101.493 101.902L241.434 -40.9846C230.349 -51.8414 216.993 -60.2329 202.158 -65.4894L135.361 123.026ZM101.861 102.26C90.6616 91.4037 83.8376 79.3838 79.8744 68.9802L266.772 -2.21886C261.907 -14.9889 253.844 -28.9568 241.067 -41.3423L101.861 102.26ZM79.9557 69.1929C74.9501 56.1427 73.9993 44.7991 73.9993 37.5824H273.999C273.999 27.1138 272.598 12.9691 266.691 -2.43152L79.9557 69.1929ZM73.9993 37.5824V38.9226H273.999V37.5824H73.9993ZM173.999 -61.0774H158.798V138.923H173.999V-61.0774ZM258.798 38.9226V35.9766H58.7983V38.9226H258.798ZM158.798 135.977H169.81V-64.0234H158.798V135.977ZM269.805 35.0151C269.66 19.9547 266.251 2.78414 257.139 -13.9902L81.394 81.476C72.9903 66.0056 69.943 50.3242 69.8143 36.938L269.805 35.0151ZM257.382 -13.5389C248.551 -29.997 235.36 -43.9691 218.91 -53.7553L116.652 118.126C101.475 109.096 89.2732 96.1628 81.1503 81.0247L257.382 -13.5389ZM219.392 -53.4669C201.074 -64.5051 181.974 -68.3821 165.584 -68.3821V131.618C150.868 131.618 133.233 128.119 116.17 117.838L219.392 -53.4669ZM165.584 -68.3821C147.728 -68.3821 127.725 -63.7868 109.154 -51.848L217.305 116.388C200.086 127.457 181.653 131.618 165.584 131.618V-68.3821ZM109.868 -52.3029C94.7288 -42.7508 82.2484 -29.4575 73.6657 -13.5703L249.63 81.4908C241.804 95.9774 230.378 108.144 216.591 116.843L109.868 -52.3029ZM73.4693 -13.205C65.0648 2.50766 61.2405 19.2493 61.085 35.2714L261.076 37.213C260.936 51.5769 257.49 66.7973 249.826 81.1255L73.4693 -13.205ZM61.0803 36.2422V38.8139H261.08V36.2422H61.0803ZM61.0803 38.8139C61.0803 51.9293 63.4868 69.1919 72.6033 87.0529L250.74 -3.87112C259.068 12.4444 261.08 27.8557 261.08 38.8139H61.0803ZM72.7975 87.4314C81.4823 104.269 95.0804 119.382 113.184 129.874L213.468 -43.1665C230.155 -33.4959 242.65 -19.558 250.546 -4.24959L72.7975 87.4314ZM113.925 130.299C132.025 140.584 150.441 143.957 165.813 143.957V-56.0426C179.286 -56.0426 196.043 -53.0712 212.727 -43.592L113.925 130.299ZM165.813 143.957C175.7 143.957 187.486 142.578 200.048 138.26L135.032 -50.8769C146.563 -54.8407 157.198 -56.0426 165.813 -56.0426V143.957ZM201.36 137.799C213.965 133.269 226.34 126.072 237.222 115.885L100.538 -30.1193C110.663 -39.5984 122.144 -46.2558 133.72 -50.4157L201.36 137.799ZM237.222 115.885C249.812 104.099 258.384 90.1857 263.547 76.2042L75.9276 6.92928C80.7036 -6.00581 88.7051 -19.0421 100.538 -30.1193L237.222 115.885ZM158.565 140.941L162.646 141.4L184.99 -57.3484L180.909 -57.8072L158.565 140.941ZM76.5532 18.7981C80.0774 4.04022 87.2922 -10.1306 98.0157 -22.0456L246.675 111.747C258.847 98.2224 267.044 82.1681 271.083 65.253L76.5532 18.7981ZM97.9785 -22.0042C108.808 -34.0509 121.325 -41.7351 132.8 -46.2752L206.385 139.696C220.097 134.27 234.449 125.346 246.712 111.706L97.9785 -22.0042ZM133.38 -46.5028C145.867 -51.3539 157.227 -52.6378 165.753 -52.6378V147.362C177.16 147.362 191.08 145.644 205.805 139.923L133.38 -46.5028ZM186.324 47H86.3237V147H186.324V47ZM186.324 22.2727V-77.7273H86.3237V22.2727H186.324ZM201.199 23.7578L152.229 110.947L152.465 111.08L152.702 111.211L201.199 23.7578ZM205.28 27.9957L116.387 73.8006L116.387 73.8007L205.28 27.9957ZM205.268 41.2528L116.451 -4.69998L116.372 -4.54738L116.294 -4.3945L205.268 41.2528ZM201.15 45.5149L152.853 -42.0486L152.77 -42.0026L152.686 -41.9565L201.15 45.5149ZM190.803 43.1243H90.8031V143.124H190.803V43.1243ZM198.796 42.1825L246.681 129.972L246.917 129.843L247.152 129.713L198.796 42.1825ZM201.392 39.3452L292.188 81.251L292.239 81.1409L292.289 81.0306L201.392 39.3452ZM201.392 29.9034L110.596 71.8093L110.647 71.9206L110.699 72.0317L201.392 29.9034ZM198.82 27.0902L150.15 114.447L150.52 114.653L150.891 114.856L198.82 27.0902ZM190.803 26.1484V-73.8516H90.8031V26.1484H190.803ZM194.703 -53H186.324V147H194.703V-53ZM286.324 47V22.2727H86.3237V47H286.324ZM186.324 122.273H194.872V-77.7273H186.324V122.273ZM194.872 122.273C183.832 122.273 168.315 119.982 152.229 110.947L250.168 -63.4316C230.557 -74.4461 210.822 -77.7273 194.872 -77.7273V122.273ZM152.702 111.211C136.751 102.366 124.259 89.0784 116.387 73.8006L294.172 -17.8092C284.4 -36.7735 269.188 -52.8859 249.695 -63.6954L152.702 111.211ZM116.387 73.8007C108.502 58.4989 106.704 44.2507 106.704 34.6122H306.704C306.704 19.8384 303.957 1.17916 294.172 -17.8092L116.387 73.8007ZM106.704 34.6122C106.704 24.9018 108.528 10.6131 116.451 -4.69998L294.084 87.2057C303.922 68.1899 306.704 49.4742 306.704 34.6122H106.704ZM116.294 -4.3945C124.284 -19.9681 136.943 -33.273 152.853 -42.0486L249.448 133.078C268.948 122.323 284.352 106.176 294.241 86.9002L116.294 -4.3945ZM152.686 -41.9565C168.768 -50.8668 184.108 -53 194.703 -53V147C210.321 147 229.958 143.877 249.614 132.986L152.686 -41.9565ZM190.803 143.124H194.486V-56.8757H190.803V143.124ZM194.486 143.124C207.862 143.124 226.95 140.735 246.681 129.972L150.911 -45.607C168.34 -55.1141 184.554 -56.8757 194.486 -56.8757V143.124ZM247.152 129.713C267.95 118.224 283.174 100.781 292.188 81.251L110.596 -2.5607C118.451 -19.5798 131.944 -35.1308 150.44 -45.3484L247.152 129.713ZM292.289 81.0306C300.618 62.8687 302.261 45.9951 302.261 34.6122H102.261C102.261 27.0125 103.325 13.2941 110.495 -2.34023L292.289 81.0306ZM302.261 34.6122C302.261 23.3042 300.642 6.19765 292.085 -12.2249L110.699 72.0317C103.3 56.1044 102.261 42.1371 102.261 34.6122H302.261ZM292.188 -12.0025C283.276 -31.3114 268.069 -49.0324 246.749 -60.6756L150.891 114.856C131.841 104.452 118.349 88.6068 110.596 71.8093L292.188 -12.0025ZM247.49 -60.2666C227.694 -71.2959 208.391 -73.8516 194.618 -73.8516V126.148C184.194 126.148 167.692 124.221 150.15 114.447L247.49 -60.2666ZM194.618 -73.8516H190.803V126.148H194.618V-73.8516ZM90.8031 26.1484V43.1243H290.803V26.1484H90.8031ZM214.148 46.1669L162.698 131.916L162.698 131.916L214.148 46.1669ZM211.057 42.8224L121.816 87.9444L121.916 88.1436L122.018 88.3424L211.057 42.8224ZM211.057 32.7649L121.915 -12.553L121.814 -12.3547L121.714 -12.156L211.057 32.7649ZM214.148 29.4084L265.597 115.158L265.597 115.158L214.148 29.4084ZM223.566 29.4084L172.116 115.158L172.116 115.158L223.566 29.4084ZM226.644 32.7649L137.302 77.6858L137.402 77.8846L137.502 78.0829L226.644 32.7649ZM226.644 42.8224L137.605 -2.69751L137.504 -2.49874L137.403 -2.29951L226.644 42.8224ZM223.566 46.1669L172.116 -39.5824L172.116 -39.5824L223.566 46.1669ZM221.344 43.0518L284.616 120.49L284.898 120.26L285.178 120.028L221.344 43.0518ZM222.817 40.8544L128.718 7.01169L128.586 7.37814L128.457 7.7456L222.817 40.8544ZM222.817 34.7088L128.367 67.5609L128.54 68.0571L128.718 68.5515L222.817 34.7088ZM221.344 32.4993L285.178 -44.4765L285.178 -44.4765L221.344 32.4993ZM216.369 32.4993L152.995 -44.8549L152.765 -44.6664L152.536 -44.4765L216.369 32.4993ZM214.884 34.7088L120.692 1.12706L120.607 1.36333L120.524 1.60002L214.884 34.7088ZM214.884 40.8544L120.524 73.9632L120.653 74.3307L120.785 74.6971L214.884 40.8544ZM216.369 43.0518L152.536 120.028L153.044 120.449L153.558 120.864L216.369 43.0518ZM218.857 -52.6378C232.063 -52.6378 248.92 -49.5889 265.597 -39.5824L162.698 131.916C182.032 143.516 202.028 147.362 218.857 147.362V-52.6378ZM265.597 -39.5824C280.961 -30.3645 292.658 -17.246 300.096 -2.69748L122.018 88.3424C130.921 105.756 144.679 121.105 162.698 131.916L265.597 -39.5824ZM300.298 -2.29955C307.889 12.7131 309.97 27.045 309.97 37.7997H109.97C109.97 52.3859 112.776 70.0663 121.816 87.9444L300.298 -2.29955ZM309.97 37.7997C309.97 48.5724 307.883 62.8022 300.4 77.6858L121.714 -12.156C112.782 5.60924 109.97 23.1956 109.97 37.7997H309.97ZM300.199 78.0829C292.805 92.6267 281.104 105.854 265.597 115.158L162.698 -56.3409C144.535 -45.4432 130.774 -29.9785 121.915 -12.553L300.199 78.0829ZM265.597 115.158C248.92 125.164 232.063 128.213 218.857 128.213V-71.7869C202.028 -71.7869 182.032 -67.9411 162.698 -56.3409L265.597 115.158ZM218.857 128.213C205.65 128.213 188.793 125.164 172.116 115.158L275.015 -56.3409C255.681 -67.9411 235.685 -71.7869 218.857 -71.7869V128.213ZM172.116 115.158C156.511 105.795 144.718 92.4352 137.302 77.6858L315.987 -12.1559C307.122 -29.7869 293.276 -45.3842 275.015 -56.3409L172.116 115.158ZM137.502 78.0829C129.889 63.107 127.743 48.7322 127.743 37.7997H327.743C327.743 23.0358 324.865 5.30448 315.786 -12.5531L137.502 78.0829ZM127.743 37.7997C127.743 26.885 129.883 12.4075 137.605 -2.69751L315.683 88.3424C324.871 70.3718 327.743 52.5459 327.743 37.7997H127.743ZM137.403 -2.29951C144.864 -17.0549 156.655 -30.3059 172.116 -39.5824L275.015 131.916C293.132 121.046 306.976 105.565 315.886 87.9444L137.403 -2.29951ZM172.116 -39.5824C188.793 -49.5889 205.65 -52.6378 218.857 -52.6378V147.362C235.685 147.362 255.681 143.516 275.015 131.916L172.116 -39.5824ZM218.881 143.861C239.231 143.861 263.433 137.798 284.616 120.49L158.072 -34.3859C177.934 -50.6152 200.494 -56.1392 218.881 -56.1392V143.861ZM285.178 120.028C301.602 106.408 311.671 89.6554 317.177 73.9632L128.457 7.7456C133.319 -6.11138 142.406 -21.3986 157.51 -33.9239L285.178 120.028ZM316.916 74.6971C321.706 61.3784 323.312 48.6865 323.312 37.7876H123.312C123.312 29.1425 124.588 18.4951 128.718 7.01169L316.916 74.6971ZM323.312 37.7876C323.312 26.9704 321.732 14.2575 316.916 0.866084L128.718 68.5515C124.562 56.9953 123.312 46.335 123.312 37.7876H323.312ZM317.267 1.85671C311.827 -13.7812 301.791 -30.6998 285.178 -44.4765L157.51 109.475C142.217 96.7931 133.163 81.3475 128.367 67.5609L317.267 1.85671ZM285.178 -44.4765C264 -62.0383 239.596 -68.3217 218.881 -68.3217V131.678C200.129 131.678 177.368 125.942 157.51 109.475L285.178 -44.4765ZM218.881 -68.3217C198.769 -68.3217 174.405 -62.3954 152.995 -44.8549L279.744 109.853C259.67 126.299 236.981 131.678 218.881 131.678V-68.3217ZM152.536 -44.4765C136.119 -30.8622 126.16 -14.2118 120.692 1.12706L309.077 68.2906C304.269 81.7781 295.3 96.9555 280.203 109.475L152.536 -44.4765ZM120.524 1.60002C115.904 14.7685 114.401 27.2221 114.401 37.7876H314.401C314.401 46.0833 313.221 56.4843 309.244 67.8176L120.524 1.60002ZM114.401 37.7876C114.401 48.4327 115.929 60.8658 120.524 73.9632L309.244 7.74563C313.196 19.0077 314.401 29.3963 314.401 37.7876H114.401ZM120.785 74.6971C126.32 90.0855 136.307 106.569 152.536 120.028L280.203 -33.924C295.112 -21.5603 304.109 -6.5415 308.984 7.01169L120.785 74.6971ZM153.558 120.864C174.965 138.144 199.124 143.861 218.881 143.861V-56.1392C236.625 -56.1392 259.11 -50.9617 279.181 -34.7599L153.558 120.864Z" fill="#101729" mask="url(#path-2-inside-1_192_361)"/>
</svg>
